<?xml version="1.0" encoding="utf-8"?>
<svg width="130px" height="117px" viewBox="0 0 130 117" version="1.1" xmlns:xlink="http://www.w3.org/1999/xlink" xmlns="http://www.w3.org/2000/svg">
  <g id="Group">
    <path d="M73.7407 15.7333L121.747 102.145Q121.905 102.429 122.044 102.722Q122.183 103.016 122.303 103.318Q122.422 103.62 122.522 103.929Q122.622 104.238 122.701 104.553Q122.781 104.868 122.84 105.187Q122.899 105.506 122.937 105.829Q122.975 106.151 122.992 106.476Q123.009 106.8 123.005 107.125Q123.001 107.449 122.976 107.773Q122.951 108.097 122.905 108.419Q122.859 108.74 122.792 109.058Q122.725 109.376 122.638 109.688Q122.55 110.001 122.443 110.308Q122.336 110.614 122.209 110.913Q122.081 111.212 121.935 111.502Q121.789 111.792 121.624 112.072Q121.46 112.352 121.277 112.62Q121.095 112.889 120.895 113.145Q120.696 113.401 120.48 113.644Q120.264 113.887 120.033 114.115Q119.802 114.343 119.557 114.556Q119.311 114.769 119.053 114.965Q118.794 115.161 118.523 115.341Q118.252 115.52 117.97 115.681Q117.688 115.842 117.397 115.985Q117.105 116.127 116.804 116.251Q116.504 116.374 116.196 116.478Q115.888 116.581 115.575 116.665Q115.261 116.748 114.942 116.811Q114.623 116.874 114.301 116.916Q113.979 116.958 113.655 116.979Q113.331 117 113.007 117L16.9934 117Q16.6687 117 16.3446 116.979Q16.0206 116.958 15.6985 116.916Q15.3765 116.874 15.0579 116.811Q14.7393 116.748 14.4254 116.665Q14.1116 116.581 13.8038 116.478Q13.496 116.374 13.1956 116.251Q12.8952 116.127 12.6034 115.985Q12.3116 115.842 12.0297 115.681Q11.7478 115.52 11.4769 115.341Q11.2061 115.161 10.9474 114.965Q10.6888 114.769 10.4434 114.556Q10.198 114.343 9.96697 114.115Q9.73592 113.887 9.52016 113.644Q9.30441 113.401 9.10485 113.145Q8.9053 112.889 8.7228 112.62Q8.54029 112.352 8.3756 112.072Q8.21091 111.792 8.06472 111.502Q7.91854 111.212 7.79149 110.913Q7.66443 110.614 7.55703 110.308Q7.44964 110.001 7.36235 109.688Q7.27507 109.376 7.20827 109.058Q7.14147 108.74 7.09543 108.419Q7.04939 108.097 7.02431 107.773Q6.99923 107.449 6.99521 107.125Q6.99119 106.8 7.00825 106.476Q7.02531 106.151 7.06338 105.829Q7.10145 105.506 7.16037 105.187Q7.21928 104.868 7.2988 104.553Q7.37831 104.238 7.47809 103.929Q7.57787 103.62 7.69749 103.318Q7.81711 103.016 7.95607 102.722Q8.09503 102.429 8.25275 102.145L56.2593 15.7333Q56.4208 15.4426 56.6012 15.1633Q56.7816 14.884 56.9802 14.6174Q57.1788 14.3507 57.3946 14.0978Q57.6105 13.8449 57.8427 13.6069Q58.0749 13.3689 58.3223 13.1468Q58.5698 12.9248 58.8315 12.7197Q59.0932 12.5145 59.3679 12.3273Q59.6427 12.14 59.9292 11.9714Q60.2158 11.8027 60.5129 11.6535Q60.8101 11.5043 61.1165 11.3752Q61.4229 11.246 61.7371 11.1375Q62.0514 11.029 62.3722 10.9417Q62.6931 10.8543 63.019 10.7884Q63.3449 10.7225 63.6744 10.6785Q64.004 10.6344 64.3357 10.6123Q64.6675 10.5902 65 10.5902Q65.3325 10.5902 65.6643 10.6123Q65.996 10.6344 66.3256 10.6785Q66.6551 10.7225 66.981 10.7884Q67.3069 10.8543 67.6277 10.9417Q67.9486 11.029 68.2629 11.1375Q68.5771 11.246 68.8835 11.3752Q69.1899 11.5043 69.4871 11.6535Q69.7842 11.8027 70.0708 11.9714Q70.3573 12.14 70.6321 12.3273Q70.9068 12.5145 71.1685 12.7197Q71.4302 12.9248 71.6777 13.1468Q71.9251 13.3689 72.1573 13.6069Q72.3895 13.8449 72.6053 14.0978Q72.8212 14.3507 73.0198 14.6174Q73.2184 14.884 73.3988 15.1633Q73.5792 15.4426 73.7407 15.7333Z" id="Triangle" fill="#FF795D" fill-rule="evenodd" stroke="none" />
    <path d="M64.999 44L65.001 44Q65.1728 44 65.3444 44.0084Q65.516 44.0169 65.687 44.0337Q65.858 44.0505 66.028 44.0758Q66.1979 44.101 66.3664 44.1345Q66.5349 44.168 66.7016 44.2098Q66.8683 44.2515 67.0327 44.3014Q67.1971 44.3512 67.3589 44.4091Q67.5207 44.467 67.6794 44.5328Q67.8381 44.5985 67.9934 44.672Q68.1488 44.7454 68.3003 44.8264Q68.4518 44.9074 68.5992 44.9958Q68.7466 45.0841 68.8894 45.1795Q69.0323 45.275 69.1703 45.3773Q69.3083 45.4797 69.4411 45.5887Q69.5739 45.6977 69.7012 45.8131Q69.8285 45.9285 69.95 46.05Q70.0715 46.1715 70.1869 46.2988Q70.3023 46.4261 70.4113 46.5589Q70.5203 46.6917 70.6226 46.8297Q70.725 46.9677 70.8204 47.1106Q70.9159 47.2534 71.0042 47.4008Q71.0926 47.5482 71.1736 47.6997Q71.2546 47.8512 71.328 48.0065Q71.4015 48.1619 71.4672 48.3206Q71.533 48.4793 71.5909 48.6411Q71.6487 48.8029 71.6986 48.9673Q71.7485 49.1317 71.7902 49.2984Q71.832 49.465 71.8655 49.6336Q71.899 49.8021 71.9242 49.972Q71.9494 50.142 71.9663 50.313Q71.9831 50.484 71.9916 50.6556Q72 50.8272 72 50.999L72 75.001Q72 75.1728 71.9916 75.3444Q71.9831 75.516 71.9663 75.687Q71.9494 75.858 71.9242 76.028Q71.899 76.1979 71.8655 76.3664Q71.832 76.5349 71.7902 76.7016Q71.7485 76.8683 71.6986 77.0327Q71.6487 77.1971 71.5909 77.3589Q71.533 77.5207 71.4672 77.6794Q71.4015 77.8381 71.328 77.9934Q71.2546 78.1488 71.1736 78.3003Q71.0926 78.4518 71.0042 78.5992Q70.9159 78.7466 70.8204 78.8894Q70.725 79.0323 70.6226 79.1703Q70.5203 79.3083 70.4113 79.4411Q70.3023 79.5739 70.1869 79.7012Q70.0715 79.8285 69.95 79.95Q69.8285 80.0715 69.7012 80.1869Q69.5739 80.3023 69.4411 80.4113Q69.3083 80.5203 69.1703 80.6226Q69.0323 80.725 68.8894 80.8204Q68.7466 80.9159 68.5992 81.0042Q68.4518 81.0926 68.3003 81.1736Q68.1488 81.2545 67.9934 81.328Q67.8381 81.4015 67.6794 81.4672Q67.5207 81.533 67.3589 81.5909Q67.1971 81.6487 67.0327 81.6986Q66.8683 81.7485 66.7016 81.7902Q66.5349 81.832 66.3664 81.8655Q66.1979 81.899 66.028 81.9242Q65.858 81.9494 65.687 81.9663Q65.516 81.9831 65.3444 81.9916Q65.1728 82 65.001 82L64.999 82Q64.8272 82 64.6556 81.9916Q64.484 81.9831 64.313 81.9663Q64.142 81.9494 63.972 81.9242Q63.8021 81.899 63.6336 81.8655Q63.465 81.832 63.2984 81.7902Q63.1317 81.7485 62.9673 81.6986Q62.8029 81.6487 62.6411 81.5909Q62.4793 81.533 62.3206 81.4672Q62.1619 81.4015 62.0065 81.328Q61.8512 81.2546 61.6997 81.1736Q61.5482 81.0926 61.4008 81.0042Q61.2534 80.9159 61.1106 80.8204Q60.9677 80.725 60.8297 80.6226Q60.6917 80.5203 60.5589 80.4113Q60.4261 80.3023 60.2988 80.1869Q60.1714 80.0715 60.05 79.95Q59.9285 79.8285 59.8131 79.7012Q59.6977 79.5739 59.5887 79.4411Q59.4797 79.3083 59.3773 79.1703Q59.275 79.0323 59.1795 78.8894Q59.0841 78.7466 58.9957 78.5992Q58.9074 78.4518 58.8264 78.3003Q58.7454 78.1488 58.672 77.9934Q58.5985 77.8381 58.5328 77.6794Q58.467 77.5207 58.4091 77.3589Q58.3512 77.1971 58.3014 77.0327Q58.2515 76.8683 58.2097 76.7016Q58.168 76.5349 58.1345 76.3664Q58.101 76.1979 58.0758 76.028Q58.0505 75.858 58.0337 75.687Q58.0169 75.516 58.0084 75.3444Q58 75.1728 58 75.001L58 50.999Q58 50.8272 58.0084 50.6556Q58.0169 50.484 58.0337 50.313Q58.0505 50.142 58.0758 49.972Q58.101 49.8021 58.1345 49.6336Q58.168 49.465 58.2097 49.2984Q58.2515 49.1317 58.3014 48.9673Q58.3512 48.8029 58.4091 48.6411Q58.467 48.4793 58.5328 48.3206Q58.5985 48.1619 58.672 48.0065Q58.7454 47.8512 58.8264 47.6997Q58.9074 47.5482 58.9957 47.4008Q59.0841 47.2534 59.1795 47.1106Q59.275 46.9677 59.3773 46.8297Q59.4797 46.6917 59.5887 46.5589Q59.6977 46.4261 59.8131 46.2988Q59.9285 46.1715 60.05 46.05Q60.1714 45.9285 60.2988 45.8131Q60.4261 45.6977 60.5589 45.5887Q60.6917 45.4797 60.8297 45.3773Q60.9677 45.275 61.1106 45.1795Q61.2534 45.0841 61.4008 44.9958Q61.5482 44.9074 61.6997 44.8264Q61.8512 44.7454 62.0065 44.672Q62.1619 44.5985 62.3206 44.5328Q62.4793 44.467 62.6411 44.4091Q62.8029 44.3512 62.9673 44.3014Q63.1317 44.2515 63.2984 44.2097Q63.465 44.168 63.6336 44.1345Q63.8021 44.101 63.972 44.0758Q64.142 44.0505 64.313 44.0337Q64.484 44.0169 64.6556 44.0084Q64.8272 44 64.999 44Z" id="Rectangle" fill="#FFFFFF" fill-rule="evenodd" stroke="none" />
    <path d="M58 97C58 93.134 61.134 90 65 90C68.866 90 72 93.134 72 97C72 100.866 68.866 104 65 104C61.134 104 58 100.866 58 97Z" id="Ellipse" fill="#FFFFFF" fill-rule="evenodd" stroke="none" />
  </g>
</svg>