<?xml version="1.0" encoding="utf-8"?>
<svg width="390px" height="329px" viewBox="0 0 390 329" version="1.1" xmlns:xlink="http://www.w3.org/1999/xlink" xmlns="http://www.w3.org/2000/svg">
  <defs>
    <linearGradient x1="0" y1="0" x2="1" y2="1" id="gradient_1">
      <stop offset="0" stop-color="#D4FF2A" />
      <stop offset="1" stop-color="#FFDD55" />
    </linearGradient>
  </defs>
  <path d="M389.469 302.492C389.054 302.272 389.046 302.043 389.436 301.612C389.933 301.066 389.967 301.084 389.997 301.91C390.022 302.58 389.897 302.719 389.469 302.492L389.469 302.492ZM389.321 298.048C389.142 298.216 388.652 298.354 388.233 298.354C387.569 298.354 387.471 298.256 387.471 297.594C387.471 296.995 387.616 296.8 388.155 296.673C389.283 296.408 390.075 297.341 389.321 298.048L389.321 298.048ZM389.118 304.591C388.731 304.815 388.287 304.529 388.287 304.056C388.287 303.832 388.478 303.704 388.741 303.752C389.287 303.851 389.516 304.36 389.118 304.591L389.118 304.591ZM387.199 311.621C386.302 312.653 385.567 313.595 385.567 313.714C385.567 313.833 385.292 313.893 384.955 313.849C384.12 313.737 384.007 312.743 384.727 311.831C385.04 311.435 385.295 310.93 385.295 310.708C385.295 309.506 387.341 307.012 388.327 307.012C388.756 307.012 388.832 307.217 388.832 308.378C388.832 309.67 388.742 309.847 387.199 311.621L387.199 311.621ZM387.214 299.74C386.288 300.188 385.84 300.234 385.84 299.881C385.84 299.618 387.247 298.854 387.731 298.854C388.295 298.854 388.001 299.359 387.214 299.74L387.214 299.74ZM387.199 512.341C387.024 512.469 386.758 512.43 386.608 512.252C386.427 512.037 386.442 511.851 386.655 511.695C386.831 511.566 387.097 511.606 387.247 511.784C387.428 511.999 387.412 512.185 387.199 512.341L387.199 512.341ZM386.587 295.862C386.109 296.452 384.926 296.814 383.475 296.814C382.727 296.814 381.613 297.076 380.668 297.473C378.641 298.326 377.802 298.243 377.847 297.195C377.895 296.068 376.814 295.349 375.675 295.751C375.18 295.927 374.745 295.952 374.598 295.815C374.021 295.274 374.815 295.03 377.15 295.03C379.399 295.03 379.582 295.068 379.582 295.539C379.582 296.047 379.582 296.047 381.01 295.539C382.466 295.02 386.927 294.792 386.927 295.236C386.927 295.349 386.774 295.631 386.587 295.862L386.587 295.862ZM385.719 510.7C385.486 510.7 385.294 510.52 385.294 510.301C385.294 510.082 385.486 509.903 385.719 509.903C385.953 509.903 386.145 510.082 386.145 510.301C386.145 510.52 385.953 510.7 385.719 510.7L385.719 510.7ZM385.321 330.528C384.989 330.35 384.989 330.06 385.321 329.882C385.652 329.705 385.922 329.85 385.922 330.205C385.922 330.56 385.652 330.705 385.321 330.528L385.321 330.528ZM384.246 310.207C383.692 311.326 382.426 314.462 382.161 315.37C381.944 316.116 380.943 316.158 380.943 315.421C380.943 315.133 381.134 314.552 381.367 314.129C381.601 313.706 381.754 313.191 381.707 312.985C381.612 312.56 376.862 317.485 376.862 318.01C376.862 318.19 376.567 318.63 376.207 318.988C375.847 319.347 375.322 320.032 375.04 320.51C374.332 321.717 373.812 321.98 372.906 321.593C372.266 321.32 372.194 321.176 372.343 320.46C372.45 319.945 372.974 319.234 373.753 318.548C375.404 317.094 375.759 316.232 375.577 314.117C375.443 312.56 375.487 312.365 376.096 311.795C376.461 311.452 377.486 310.918 378.372 310.607C380.278 309.939 380.69 309.659 380.49 309.169C380.302 308.711 380.454 308.714 381.676 309.192C382.659 309.577 382.668 309.574 383.428 308.746C384.068 308.048 384.236 307.975 384.467 308.295C384.849 308.824 384.824 309.04 384.246 310.207L384.246 310.207ZM383.119 366.802C382.751 367.015 382.303 366.727 382.303 366.277C382.303 366.075 382.548 365.909 382.847 365.909C383.411 365.909 383.598 366.524 383.119 366.802L383.119 366.802ZM381.988 335.255C381.529 335.686 380.538 335.656 380.134 335.199C379.903 334.939 379.879 334.61 380.055 334.116C380.266 333.524 380.462 333.406 381.237 333.406C382.071 333.406 382.175 333.485 382.247 334.172C382.291 334.593 382.175 335.081 381.988 335.256L381.988 335.255ZM381.105 374.916C380.555 375.597 379.53 375.372 379.204 374.5C378.875 373.619 379.252 372.956 380.152 372.832C381.278 372.677 381.87 373.971 381.105 374.916L381.105 374.916ZM379.387 357.725C378.961 358.217 378.84 358.242 378.393 357.935C377.627 357.41 378.034 356.421 378.972 356.526C379.867 356.626 380.002 357.015 379.387 357.725L379.387 357.725ZM377.152 301.139C376.312 301.56 375.785 301.449 375.46 300.782C375.036 299.908 375.341 299.364 376.255 299.364C377.604 299.364 378.229 300.599 377.152 301.139L377.152 301.139ZM375.396 354.938C375.16 354.938 374.971 354.711 374.971 354.428C374.971 354.145 375.16 353.918 375.396 353.918C375.632 353.918 375.821 354.145 375.821 354.428C375.821 354.711 375.632 354.938 375.396 354.938L375.396 354.938ZM375.383 297.579C375.149 297.579 374.958 297.4 374.958 297.181C374.958 296.962 375.149 296.782 375.383 296.782C375.617 296.782 375.808 296.962 375.808 297.181C375.808 297.4 375.617 297.579 375.383 297.579L375.383 297.579ZM374.104 333.979C373.021 335.518 372.409 335.921 372.167 335.254C371.996 334.784 372.951 333.195 374.153 331.949L375.207 330.857L375.216 331.621C375.221 332.1 374.805 332.983 374.104 333.979L374.104 333.979ZM372.94 346.535C372.29 346.535 371.688 346.23 371.847 345.981C372.104 345.578 373.326 345.709 373.326 346.14C373.326 346.357 373.152 346.535 372.94 346.535L372.94 346.535ZM371.591 317.702C371.151 318.044 370.333 317.815 370.333 317.35C370.333 317.172 370.516 316.883 370.741 316.709C371.066 316.455 371.231 316.455 371.557 316.709C372.063 317.102 372.07 317.329 371.591 317.702L371.591 317.702ZM371.421 312.749C371.1 312.96 370.604 312.686 370.604 312.298C370.604 312.148 370.849 312.025 371.149 312.025C371.722 312.025 371.881 312.446 371.421 312.749L371.421 312.749ZM371.283 354.77C370.955 355.077 370.619 354.964 370.619 354.548C370.619 354.328 370.811 354.148 371.045 354.148C371.49 354.148 371.61 354.463 371.283 354.77L371.283 354.77ZM370.857 327.254C370.285 327.936 369.789 328.131 369.789 327.675C369.789 327.537 370.152 327.049 370.597 326.591C371.548 325.611 371.767 326.169 370.857 327.254L370.857 327.254ZM371.213 321.96C370.887 322.418 369.776 322.877 369.36 322.727C368.742 322.505 368.911 321.635 369.682 321.067C370.226 320.666 370.511 320.604 370.906 320.802C371.444 321.072 371.553 321.484 371.213 321.96L371.213 321.96ZM370.771 331.239C370.538 331.239 370.346 331.06 370.346 330.841C370.346 330.622 370.538 330.443 370.771 330.443C371.005 330.443 371.197 330.622 371.197 330.841C371.197 331.06 371.005 331.239 370.771 331.239L370.771 331.239ZM370.153 408.929C370.077 409.105 369.712 409.248 369.34 409.248C368.764 409.248 368.677 409.145 368.751 408.549C368.846 407.777 369.702 407.434 370.092 408.012C370.348 408.391 370.353 408.464 370.153 408.929L370.153 408.929ZM369.282 337.329C368.631 337.656 367.786 337.119 367.923 336.466C368.049 335.862 368.778 335.439 369.344 335.642C369.953 335.861 369.911 337.014 369.282 337.329L369.282 337.329ZM368.969 392.231C368.668 392.59 367.613 393.487 366.625 394.224C365.456 395.096 364.027 396.578 362.534 398.468C357.884 404.358 354.431 407.063 351.161 407.379C349.788 407.512 349.633 407.469 348.857 406.742C347.919 405.863 347.799 404.912 348.331 402.559C349.161 398.881 351.337 396.135 354.498 394.774C360.906 392.017 361.627 391.65 362.58 390.662C363.825 389.37 365.53 388.588 367.086 388.593C368.447 388.597 368.759 388.734 369.204 389.528C369.678 390.372 369.58 391.504 368.969 392.231L368.969 392.231ZM354.72 397.986C354.287 397.986 353.883 398.476 354.121 398.712C354.345 398.935 355.112 398.588 355.112 398.265C355.112 398.111 354.936 397.986 354.72 397.986L354.72 397.986ZM368.68 341.682C367.983 341.682 368.062 340.838 368.771 340.71C369.098 340.651 369.244 340.788 369.244 341.153C369.244 341.518 369.07 341.682 368.68 341.682L368.68 341.682ZM368.236 385.402C367.97 385.863 367.747 386.035 367.676 385.835C367.48 385.287 367.87 383.819 368.299 383.485C368.637 383.222 368.699 383.289 368.689 383.905C368.683 384.308 368.48 384.982 368.236 385.402L368.236 385.402ZM368.581 314.15C368.348 314.15 368.156 313.97 368.156 313.751C368.156 313.532 368.348 313.353 368.581 313.353C368.815 313.353 369.006 313.532 369.006 313.751C369.006 313.97 368.815 314.15 368.581 314.15L368.581 314.15ZM367.896 510.508C367.565 510.33 367.565 510.04 367.896 509.862C368.227 509.685 368.498 509.83 368.498 510.185C368.498 510.54 368.227 510.685 367.896 510.508L367.896 510.508ZM367.303 507.385C367.024 507.385 366.796 507.206 366.796 506.987C366.796 506.768 366.934 506.589 367.102 506.589C367.27 506.589 367.498 506.768 367.608 506.987C367.719 507.206 367.581 507.385 367.303 507.385L367.303 507.385ZM366.502 342.01C366.337 342.275 365.9 342.456 365.422 342.456C364.713 342.456 364.62 342.368 364.62 341.697C364.62 340.854 365.67 339.996 366.386 340.253C366.853 340.421 366.914 341.347 366.502 342.01L366.502 342.01ZM366.405 298.344C366.171 298.344 365.98 298.165 365.98 297.946C365.98 297.727 366.171 297.547 366.405 297.547C366.639 297.547 366.83 297.727 366.83 297.946C366.83 298.165 366.639 298.344 366.405 298.344L366.405 298.344ZM365.837 332.079C365.479 332.402 365.178 332.247 365.178 331.739C365.178 331.456 365.366 331.229 365.602 331.229C366.032 331.229 366.182 331.769 365.837 332.079L365.837 332.079ZM365.43 349.47C365.283 349.555 365.163 349.534 365.163 349.425C365.163 349.315 364.973 349.481 364.74 349.792C364.209 350.502 363.803 350.52 363.803 349.832C363.803 349.132 364.285 348.319 364.699 348.319C365.163 348.319 365.769 349.274 365.43 349.47L365.43 349.47ZM365.255 477.598C364.984 477.922 364.021 477.859 364.192 477.528C364.385 477.155 365.437 476.827 365.437 477.14C365.437 477.272 365.355 477.478 365.255 477.598L365.255 477.598ZM365.034 308.286C364.737 308.286 364.636 308.107 364.809 307.888C364.983 307.669 365.226 307.489 365.349 307.489C365.473 307.489 365.574 307.669 365.574 307.888C365.574 308.107 365.331 308.286 365.034 308.286L365.034 308.286ZM363.14 356.987C362.907 356.987 362.715 356.808 362.715 356.589C362.715 356.369 362.907 356.19 363.14 356.19C363.374 356.19 363.565 356.369 363.565 356.589C363.565 356.808 363.374 356.987 363.14 356.987L363.14 356.987ZM362.415 503.316C361.854 503.316 361.812 502.075 362.368 501.918C362.59 501.855 362.793 502.144 362.819 502.56C362.845 502.976 362.663 503.316 362.415 503.316L362.415 503.316ZM361.991 300.988C361.735 301.228 360.812 301.2 360.812 300.952C360.812 300.507 361.563 299.815 361.859 299.987C362.204 300.187 362.274 300.722 361.991 300.988L361.991 300.988ZM361.572 505.266C361.14 505.725 360.63 505.705 360.456 505.223C360.358 504.954 360.559 504.826 361.107 504.81C362.007 504.783 362.018 504.794 361.572 505.267L361.572 505.266ZM361.603 371.659C361.187 371.9 360.706 371.377 360.902 370.898C360.992 370.678 361.253 370.498 361.482 370.498C361.958 370.498 362.052 371.4 361.603 371.659L361.603 371.659ZM360.923 520.652C360.753 520.652 360.523 520.424 360.413 520.146C360.298 519.856 360.43 519.77 360.722 519.945C361.291 520.285 361.395 520.652 360.923 520.652L360.923 520.652ZM360.556 351.007C360.386 351.099 360.173 351.111 360.084 351.033C359.845 350.823 360.218 350.104 360.566 350.104C360.961 350.104 360.953 350.792 360.556 351.007L360.556 351.007ZM360.373 302.031C360.017 302.24 359.632 301.757 359.93 301.475C360.236 301.184 360.673 301.238 360.673 301.567C360.673 301.725 360.538 301.934 360.373 302.031L360.373 302.031ZM357.434 527.27C356.877 526.771 356.877 526.433 357.434 526.633C357.675 526.719 357.87 526.984 357.866 527.221C357.861 527.593 357.801 527.599 357.434 527.27L357.434 527.27ZM357.179 520.132C356.9 520.132 356.763 519.953 356.873 519.733C356.984 519.514 357.211 519.335 357.379 519.335C357.548 519.335 357.685 519.514 357.685 519.733C357.685 519.953 357.457 520.132 357.179 520.132L357.179 520.132ZM356.552 341.362C356.004 341.753 355.042 342.504 354.413 343.03C353.784 343.555 353.13 343.986 352.96 343.986C352.79 343.986 352.651 344.202 352.651 344.467C352.651 344.922 351.591 346.379 351.571 345.951C351.546 345.382 352.852 343.465 353.969 342.431C354.665 341.787 355.557 340.898 355.952 340.455C356.346 340.013 356.866 339.652 357.108 339.652C357.895 339.652 357.578 340.628 356.552 341.362L356.552 341.362ZM356.739 330.449C355.67 331.62 355.377 331.252 356.341 329.948C357.26 328.706 357.564 328.495 357.549 329.111C357.543 329.365 357.179 329.967 356.739 330.449L356.739 330.449ZM357.114 525.945C356.88 525.886 356.689 525.712 356.689 525.558C356.689 525.403 356.88 525.229 357.114 525.171C357.348 525.112 357.539 525.286 357.539 525.558C357.539 525.829 357.348 526.003 357.114 525.945L357.114 525.945ZM356.489 425.181C356.318 425.274 356.106 425.285 356.017 425.207C355.777 424.998 356.151 424.279 356.499 424.279C356.894 424.279 356.886 424.966 356.489 425.181L356.489 425.181ZM356.118 313.921C355.39 314.951 352.945 316.189 351.642 316.189C351.047 316.189 350.253 316.498 349.348 317.082C347.875 318.031 345.965 318.382 346.683 317.571C346.879 317.349 347.429 316.976 347.905 316.742C350.451 315.49 351.276 315.024 352.527 314.129C354.617 312.635 356.73 311.922 356.73 312.71C356.73 312.9 356.455 313.445 356.118 313.921L356.118 313.921ZM353.312 311.524C352.721 311.737 352.165 311.197 352.577 310.811C352.926 310.485 353.738 310.687 353.738 311.1C353.738 311.249 353.546 311.44 353.312 311.524L353.312 311.524ZM353.27 328.094C353.203 328.282 352.949 328.435 352.705 328.435C352.301 328.435 352.302 328.394 352.721 327.974C353.213 327.482 353.468 327.538 353.27 328.094L353.27 328.094ZM352.65 341.691C352.051 341.691 352.031 341.66 352.271 341.075C352.507 340.497 353.194 340.576 353.194 341.181C353.194 341.521 353.012 341.691 352.65 341.691L352.65 341.691ZM351.88 319.346C351.192 319.93 350.473 319.885 350.473 319.258C350.473 318.659 351.384 317.728 351.969 317.728C352.548 317.728 352.487 318.831 351.88 319.346L351.88 319.346ZM350.474 386.804C350.111 386.804 349.93 386.634 349.93 386.294C349.93 385.955 350.111 385.785 350.474 385.785C350.836 385.785 351.018 385.955 351.018 386.294C351.018 386.634 350.836 386.804 350.474 386.804L350.474 386.804ZM348.472 385.785C348.194 385.785 348.056 385.605 348.167 385.386C348.277 385.167 348.505 384.988 348.673 384.988C348.841 384.988 348.979 385.167 348.979 385.386C348.979 385.605 348.751 385.785 348.472 385.785L348.472 385.785ZM348.565 331.417C348.333 331.992 346.755 332.925 346.469 332.657C346.381 332.575 346.51 332.114 346.755 331.632C347.177 330.802 347.174 330.749 346.693 330.606C345.518 330.257 345.769 328.945 347.01 328.945C347.776 328.945 347.82 328.998 347.72 329.799C347.633 330.497 347.697 330.632 348.068 330.541C348.661 330.396 348.846 330.721 348.565 331.417L348.565 331.417ZM348.365 297.395C347.76 297.908 346.544 298.344 345.721 298.344C344.864 298.344 345.083 297.545 346.174 296.684C347.042 296 347.993 295.867 348.515 296.356C348.95 296.764 348.928 296.917 348.365 297.395L348.365 297.395ZM347.479 409.887C346.866 410.407 346.297 410.259 345.742 409.435C345.392 408.914 345.794 407.756 346.462 407.363C347.703 406.633 348.624 408.916 347.479 409.887L347.479 409.887ZM347.669 360.292C347.262 360.292 347.231 360.189 347.514 359.782C347.71 359.501 347.939 359.272 348.024 359.272C348.109 359.272 348.178 359.501 348.178 359.782C348.178 360.07 347.957 360.292 347.669 360.292L347.669 360.292ZM347.635 359.017C347.401 359.017 347.209 358.838 347.209 358.619C347.209 358.4 347.401 358.22 347.635 358.22C347.868 358.22 348.06 358.4 348.06 358.619C348.06 358.838 347.868 359.017 347.635 359.017L347.635 359.017ZM347.123 310.291C345.808 311.449 343.944 310.713 343.944 309.036C343.944 307.593 345.999 307.178 347.116 308.396C347.913 309.264 347.915 309.595 347.124 310.291L347.123 310.291ZM345.458 301.4C345.242 301.568 344.749 301.668 344.361 301.623C343.687 301.544 343.675 301.516 344.088 300.967C344.335 300.639 344.805 300.393 345.185 300.393C345.926 300.393 346.07 300.924 345.458 301.4L345.458 301.4ZM344.332 369.951C343.516 370.299 343.128 370.149 343.128 369.484C343.128 368.634 343.447 368.204 344.078 368.204C344.49 368.204 344.752 368.396 344.861 368.778C345.1 369.615 345.096 369.625 344.332 369.951L344.332 369.951ZM344.913 359.282C344.68 359.282 344.488 359.103 344.488 358.884C344.488 358.664 344.68 358.485 344.913 358.485C345.147 358.485 345.338 358.664 345.338 358.884C345.338 359.103 345.147 359.282 344.913 359.282L344.913 359.282ZM343.567 400.07C343.333 400.07 343.142 399.891 343.142 399.672C343.142 399.453 343.333 399.273 343.567 399.273C343.801 399.273 343.992 399.453 343.992 399.672C343.992 399.891 343.801 400.07 343.567 400.07L343.567 400.07ZM342.551 322.572C342.069 322.572 342.03 322.507 342.313 322.174C342.499 321.955 342.759 321.775 342.89 321.775C343.021 321.775 343.129 321.955 343.129 322.174C343.129 322.403 342.883 322.572 342.551 322.572L342.551 322.572ZM342.598 308.041C342.296 308.041 342.054 307.864 342.054 307.643C342.054 307.422 342.296 307.245 342.598 307.245C342.9 307.245 343.142 307.422 343.142 307.643C343.142 307.864 342.9 308.041 342.598 308.041L342.598 308.041ZM341.916 341.566C341.429 342.023 340.953 342.192 340.155 342.192C339.219 342.192 339.002 342.083 338.647 341.44C337.707 339.737 338.491 338.368 340.408 338.368C342.447 338.368 343.331 340.241 341.916 341.566L341.916 341.566ZM341.081 390.883C340.784 390.883 340.683 390.704 340.856 390.485C341.03 390.266 341.273 390.087 341.397 390.087C341.52 390.087 341.622 390.266 341.622 390.485C341.622 390.704 341.378 390.883 341.081 390.883L341.081 390.883ZM340.018 302.424C339.784 302.424 339.593 302.245 339.593 302.026C339.593 301.807 339.784 301.627 340.018 301.627C340.252 301.627 340.443 301.807 340.443 302.026C340.443 302.245 340.252 302.424 340.018 302.424L340.018 302.424ZM339.895 346.742C339.511 347.31 338.64 346.983 338.64 346.271C338.64 345.857 338.815 345.609 339.151 345.548C339.591 345.469 340.128 345.866 340.128 346.271C340.128 346.341 340.023 346.553 339.895 346.742L339.895 346.742ZM337.949 353.805C337.787 353.899 337.53 353.861 337.38 353.72C336.978 353.343 337.225 352.536 337.772 352.437C338.12 352.374 338.245 352.521 338.245 352.993C338.245 353.345 338.112 353.711 337.949 353.805L337.949 353.805ZM337.841 346.526C337.607 346.526 337.416 346.346 337.416 346.127C337.416 345.908 337.607 345.729 337.841 345.729C338.075 345.729 338.266 345.908 338.266 346.127C338.266 346.346 338.075 346.526 337.841 346.526L337.841 346.526ZM337.532 319.622C336.745 320.359 335.783 319.92 335.783 318.824C335.783 318.352 335.931 318.238 336.545 318.238C337.266 318.238 337.959 318.629 337.959 319.036C337.959 319.138 337.767 319.402 337.532 319.622L337.532 319.622ZM337.501 315.799C336.803 316.05 336.402 315.509 336.924 315.019C337.327 314.642 337.386 314.651 337.656 315.123C337.89 315.534 337.859 315.67 337.501 315.799L337.501 315.799ZM336.212 364.89C335.667 364.89 335.762 364.282 336.334 364.107C336.535 364.046 336.7 364.197 336.7 364.443C336.7 364.689 336.48 364.89 336.212 364.89L336.212 364.89ZM334.151 347.683C333.792 347.891 333.335 347.612 333.335 347.185C333.335 346.812 334.001 346.48 334.261 346.723C334.514 346.961 334.452 347.509 334.151 347.683L334.151 347.683ZM332.868 461.636C332.612 462.623 331.4 463.794 329.724 464.673C328.792 465.162 326.827 466.367 325.357 467.351C323.663 468.484 322.317 469.194 321.684 469.288C320.031 469.531 318.073 470.544 316.06 472.194C313.247 474.501 303.729 479.235 300.382 479.991C299.28 480.241 297.888 480.684 297.289 480.977C296.395 481.414 295.666 481.515 293.208 481.543C290.451 481.575 290.029 481.649 287.837 482.484C286.529 482.983 285.099 483.465 284.66 483.555C284.22 483.646 283.72 483.879 283.548 484.073C283.376 484.267 282.786 484.561 282.237 484.726C281.688 484.891 281.055 485.168 280.831 485.342C280.606 485.515 279.933 485.727 279.334 485.812C277.686 486.047 274.388 487.738 273.549 488.778C273.15 489.273 271.648 490.825 270.211 492.227C268.773 493.629 267.302 495.178 266.942 495.669C266.582 496.159 265.581 497.275 264.717 498.148C263.854 499.021 263.148 499.874 263.148 500.043C263.148 500.213 262.883 500.616 262.559 500.939C262.111 501.386 261.932 501.97 261.808 503.4C261.653 505.173 261.578 505.343 260.421 506.549C259.616 507.388 258.978 508.409 258.552 509.54C258.019 510.954 257.721 511.366 256.859 511.875C255.321 512.785 254.186 512.679 251.178 511.347C249.342 510.533 248.239 510.199 247.369 510.192C246.696 510.186 245.839 510.018 245.465 509.817C244.013 509.039 242.063 509.497 240.79 510.915C240.428 511.318 239.782 511.731 239.354 511.831C238.445 512.045 236.759 513.535 236.759 514.125C236.759 514.363 236.533 514.533 236.215 514.533C235.916 514.533 235.671 514.665 235.671 514.826C235.671 515.753 228.556 522.436 227.569 522.436C227.427 522.436 227.005 522.661 226.632 522.937C226.258 523.213 225.372 523.56 224.663 523.709C223.954 523.858 223.05 524.127 222.653 524.307C222.179 524.523 221.514 524.575 220.709 524.458C220.036 524.36 219.38 524.37 219.253 524.48C219.126 524.59 218.636 524.573 218.165 524.442C217.694 524.311 216.73 524.23 216.022 524.261C215.315 524.292 214.652 524.238 214.549 524.142C214.167 523.784 212.889 523.981 212.416 524.471C212.147 524.75 211.24 525.336 210.401 525.775C208.412 526.815 207.734 527.418 207.36 528.481C206.917 529.739 207.268 530.987 208.394 532.155C209.59 533.396 210.588 533.908 211.813 533.908C213.39 533.908 216.345 536.082 217.558 538.136C218.136 539.114 218.594 539.52 219.649 539.986C220.643 540.426 221.124 540.831 221.468 541.516C221.774 542.126 222.152 542.477 222.562 542.531C223.54 542.662 223.145 543.078 221.518 543.631C219.207 544.417 218.934 544.441 217.484 543.99C216.262 543.609 216.09 543.461 215.765 542.498C215.449 541.563 215.257 541.385 214.232 541.081C213.237 540.786 212.908 540.787 212.056 541.09C210.613 541.602 210.566 542.552 211.891 544.379C212.443 545.14 213.195 546.368 213.562 547.11C213.929 547.851 214.524 548.638 214.884 548.86C215.245 549.081 215.543 549.392 215.546 549.552C215.549 549.711 216.1 550.634 216.77 551.603C218.368 553.915 218.377 554.633 216.827 556.193C215.421 557.608 214.576 557.7 212.805 556.632C211.429 555.801 207.107 551.72 207.107 551.251C207.107 551.08 206.864 550.651 206.566 550.297C206.269 549.943 206.093 549.552 206.175 549.427C206.373 549.127 205.184 547.164 204.804 547.164C204.639 547.164 203.86 548.419 203.071 549.953C201.823 552.379 201.542 552.752 200.908 552.821C199.53 552.971 196.55 558.379 195.906 561.9C195.583 563.664 195.589 563.701 196.31 564.587C196.712 565.081 197.041 565.619 197.041 565.783C197.041 565.947 197.653 567.377 198.401 568.961C199.149 570.544 199.762 572.02 199.762 572.24C199.762 572.46 200.178 573.36 200.686 574.242C201.195 575.123 201.7 576.122 201.808 576.462C201.916 576.802 202.657 577.907 203.455 578.918C204.252 579.928 204.828 580.825 204.736 580.912C204.643 580.999 204.937 581.07 205.388 581.07C206.978 581.07 209.053 582.973 210.622 585.869C211.843 588.122 210.62 589.317 208.698 587.748C208.197 587.339 207.394 586.815 206.913 586.585C205.946 586.121 204.888 584.604 204.203 582.699C203.953 582.005 203.304 581.027 202.738 580.493C202.18 579.965 201.211 578.611 200.584 577.483C199.958 576.355 199.119 575.066 198.72 574.618C198.32 574.171 197.702 573.262 197.347 572.599C196.412 570.857 191.997 566.794 191.039 566.794C189.971 566.794 189.283 567.468 188.472 569.31C187.518 571.477 186.675 572.687 185.47 573.617C183.468 575.164 179.181 575.676 176.431 574.696C173.459 573.638 172.705 574 170.646 577.469C169.429 579.518 168.464 581.044 167.114 583.051C166.473 584.004 166.232 584.758 166.001 586.524C165.839 587.765 165.425 589.483 165.081 590.342C164.737 591.201 164.316 592.749 164.146 593.782C163.976 594.815 163.714 595.876 163.563 596.14C163.175 596.819 161.871 596.753 160.946 596.008C159.905 595.169 159.979 593.933 161.201 591.765C161.871 590.575 162.236 589.48 162.475 587.941C162.659 586.756 163.031 585.442 163.302 585.021C163.573 584.6 163.878 583.625 163.981 582.854C164.095 581.991 164.703 580.376 165.563 578.651C166.84 576.09 166.96 575.69 166.97 573.968C166.98 572.12 166.963 572.073 166.048 571.415C164.981 570.648 162.764 567.935 162.764 567.397C162.764 567.198 162.335 566.453 161.811 565.739C161.288 565.026 160.859 564.333 160.859 564.199C160.859 563.867 159.607 562.336 158.207 560.958C157.571 560.332 157.051 559.668 157.051 559.483C157.051 559.297 156.795 559.146 156.482 559.146C156.168 559.146 155.605 558.919 155.23 558.643C154.747 558.287 154.19 558.154 153.331 558.189C152.296 558.231 151.845 558.447 150.312 559.632C148.093 561.347 146.892 561.795 145.856 561.293C144.105 560.444 143.47 558.434 144.416 556.733C145.066 555.567 144.489 553.028 143.575 553.028C143.321 553.028 143.177 552.773 143.179 552.326C143.182 551.701 142.12 548.374 141.492 547.036C141.188 546.388 139.408 545.723 137.41 545.511C136.494 545.414 135.575 545.137 135.165 544.835C134.543 544.376 134.471 544.144 134.471 542.588C134.471 540.608 134.156 540.181 132.736 540.231C132.245 540.248 131.27 540.492 130.571 540.773C129.872 541.054 129.122 541.22 128.906 541.142C128.689 541.064 128.353 541.094 128.159 541.208C127.965 541.322 127.622 541.418 127.398 541.422C127.174 541.426 126.873 541.801 126.73 542.257C126.587 542.712 126.311 543.085 126.118 543.085C125.924 543.085 125.766 543.18 125.766 543.296C125.766 543.412 125.392 543.456 124.936 543.393C124.352 543.313 124.001 543.413 123.752 543.732C123.515 544.036 123.197 544.135 122.784 544.034C122.343 543.926 122.134 544.007 122.047 544.321C121.98 544.562 121.365 545.091 120.68 545.497C119.482 546.207 119.422 546.217 119.063 545.757C118.858 545.494 118.76 545.072 118.846 544.819C118.974 544.441 118.845 544.36 118.112 544.36C117.456 544.36 117.303 544.285 117.529 544.074C117.964 543.666 117.686 543.115 116.41 541.854C115.14 540.6 114.361 540.167 112.939 539.926C112.393 539.833 111.79 539.581 111.599 539.366C111.38 539.119 111.018 539.029 110.62 539.122C110.162 539.23 109.987 539.162 109.987 538.878C109.987 538.661 109.651 538.367 109.239 538.224C108.333 537.91 106.461 535.993 106.455 535.374C106.452 535.128 106.338 534.928 106.201 534.928C106.063 534.928 105.703 534.551 105.4 534.092C105.072 533.594 104.447 533.12 103.859 532.92C103.13 532.673 102.599 532.193 101.844 531.099C100.969 529.83 100.784 529.304 100.577 527.491C100.444 526.323 100.37 524.203 100.413 522.78C100.48 520.544 100.415 520.076 99.935 519.338C99.6295 518.869 99.3791 518.179 99.3785 517.805C99.378 517.431 99.2245 517.077 99.0375 517.018C98.7683 516.933 98.7741 516.711 99.0651 515.951C99.3631 515.173 99.3695 514.779 99.0987 513.873C98.855 513.058 98.8431 512.565 99.0548 512.051C99.2145 511.664 99.427 510.372 99.5272 509.18C99.6274 507.988 99.888 506.611 100.106 506.121C100.412 505.434 100.454 504.759 100.29 503.189C100.173 502.067 100.073 501.036 100.068 500.898C100.062 500.76 100.385 500.5 100.785 500.32C102.378 499.605 102.024 497.28 99.9137 494.587C98.8238 493.196 98.4109 492.861 97.6117 492.721C96.9344 492.602 96.5223 492.34 96.2583 491.862C96.0496 491.483 95.3925 490.858 94.7981 490.472C94.2037 490.086 93.2596 489.307 92.7 488.74C92.1405 488.173 91.2717 487.549 90.7693 487.352C89.5138 486.86 88.441 487.308 86.8143 489.004C85.8376 490.022 85.376 490.315 84.7503 490.315C84.3071 490.315 83.6525 490.524 83.2956 490.778C82.9388 491.033 82.2184 491.398 81.6947 491.59C81.171 491.781 80.1266 492.3 79.3738 492.744C78.621 493.188 77.5621 493.629 77.0207 493.725C76.4794 493.82 75.9008 494.051 75.735 494.238C75.5167 494.484 74.8898 494.549 73.4633 494.471C70.7291 494.322 70.3444 494.267 68.5702 493.774C67.7107 493.535 66.776 493.408 66.4931 493.492C65.5526 493.772 64.5746 493.093 63.7813 491.61C62.1128 488.49 60.1497 485.217 59.9469 485.217C59.829 485.217 59.4015 484.973 58.9969 484.674L58.2613 484.132L59.3572 483.145C61.5702 481.153 61.4839 479.605 58.9463 475.779C57.1406 473.057 56.8651 471.956 57.7649 471.058C58.1167 470.707 58.7024 470.43 59.0945 470.43C59.4799 470.43 60.4848 470 61.3277 469.474C62.1706 468.949 63.2417 468.323 63.7081 468.085C64.4559 467.701 64.5559 467.52 64.5559 466.543C64.5559 465.587 64.4072 465.3 63.4678 464.44C62.8693 463.892 62.3892 463.324 62.4011 463.177C62.4129 463.03 62.4843 463.054 62.5598 463.229C62.6352 463.404 63.1458 463.553 63.6945 463.559C64.2431 463.565 65.0592 463.721 65.5081 463.905C66.2175 464.196 66.4553 464.178 67.3264 463.77C68.4738 463.231 69.1807 462.407 69.1807 461.608C69.1807 460.334 65.8244 456.574 64.0118 455.818C63.2148 455.485 58.843 451.862 58.843 451.535C58.843 451.182 60.5325 451.273 61.8604 451.697C62.5856 451.929 63.1772 452.309 63.337 452.645C63.4837 452.954 63.8705 453.267 64.1965 453.342C64.5225 453.417 65.5724 454.338 66.5297 455.39C68.6691 457.74 70.3963 459.08 71.5599 459.294C72.7568 459.513 73.7515 460.161 74.2344 461.036C74.538 461.586 74.5529 461.763 74.2959 461.763C73.8896 461.763 74.6338 462.271 76.2757 463.113C76.937 463.453 78.0289 464.021 78.7022 464.377C80.8703 465.523 81.0778 465.514 81.4343 464.262C82.0749 462.012 83.4146 459.067 84.0631 458.482C84.4688 458.117 84.6819 457.693 84.6029 457.41C84.5048 457.058 84.6856 456.881 85.3278 456.7C87.0179 456.222 87.4659 456.197 88.4495 456.519C88.9986 456.7 90.0571 456.932 90.8017 457.035C92.1647 457.224 94.0259 457.966 94.3423 458.445C94.6593 458.926 95.7535 458.708 96.8883 457.938L98.0173 457.171L98.0173 454.897C98.0173 453.169 98.12 452.526 98.4448 452.221C98.6799 452.001 98.9573 451.821 99.0612 451.821C99.1652 451.821 99.6526 451.245 100.144 450.541C100.636 449.837 101.516 448.979 102.099 448.634C102.889 448.166 103.204 447.782 103.336 447.127C103.455 446.532 103.631 446.291 103.88 446.38C104.096 446.458 105.231 445.605 106.617 444.323C107.919 443.119 109.058 442.134 109.146 442.134C109.235 442.134 109.643 441.739 110.054 441.257C110.464 440.774 111.689 439.75 112.774 438.981C113.86 438.212 114.922 437.316 115.134 436.99C115.827 435.927 115.55 433.818 114.385 431.291C111.697 425.456 111.664 423.523 114.235 422.38C116.116 421.544 116.927 421.64 118.012 422.827C119.299 424.236 119.544 425.125 119.708 428.978C119.838 432.037 119.895 432.316 120.532 432.986C120.909 433.383 121.328 433.643 121.463 433.564C121.598 433.486 121.879 433.554 122.087 433.716C122.51 434.046 123.426 433.608 124.727 432.456C126.545 430.844 126.892 427.438 125.519 424.684C125.235 424.116 124.859 423.22 124.683 422.694C124.506 422.167 123.753 421.112 123.009 420.349C121.263 418.558 118.422 413.467 118.417 412.118C118.415 411.591 118.17 410.433 117.873 409.544C117.576 408.655 117.332 407.257 117.332 406.436C117.332 405.125 117.154 404.626 115.861 402.316C114.324 399.57 113.778 398.891 110.7 395.899C109.671 394.898 108.609 393.603 108.341 393.021C108.073 392.439 107.383 391.235 106.808 390.345C105.462 388.26 105.391 388.155 104.346 386.687C102.923 384.688 102.894 383.103 104.242 381.051C104.884 380.076 106.5 379.729 107.88 380.273C109.235 380.807 111.002 382.797 112.171 385.107C112.752 386.256 113.906 388.281 114.735 389.607C115.563 390.932 116.445 392.538 116.694 393.176C117.72 395.801 118.407 396.938 119.475 397.784C120.09 398.27 121.97 399.94 123.655 401.494C126.744 404.343 127.53 404.914 128.362 404.914C128.716 404.914 128.778 404.767 128.64 404.251L128.462 403.589L129.302 404.149C130.863 405.191 132.909 404.728 133.788 403.135C134.017 402.72 134.282 401.522 134.377 400.473C134.525 398.828 134.653 398.473 135.311 397.882C135.936 397.321 136.233 397.227 136.951 397.361C137.945 397.548 141.389 399.281 141.171 399.486C141.092 399.559 141.737 400.175 142.604 400.854C145.249 402.925 147.379 405.921 148.092 408.574C148.389 409.681 148.529 409.812 150.584 410.923C156.329 414.028 160.752 415.149 163.988 414.32C165.724 413.875 167.417 412.044 168.221 409.745C168.849 407.948 168.881 407.557 168.827 402.492C168.763 396.601 168.746 396.51 166.345 389.109C165.121 385.335 164.632 382.943 164.979 382.43C165.103 382.247 165.206 381.628 165.208 381.054C165.21 380.479 165.412 379.634 165.657 379.174C166.021 378.49 166.059 378.009 165.867 376.522C165.739 375.523 165.63 372.411 165.627 369.607C165.621 364.709 165.641 364.508 166.154 364.508C166.454 364.508 166.831 364.787 167.015 365.145C167.386 365.865 169.399 374.028 169.872 376.727C170.11 378.087 170.603 379.231 172.015 381.698L173.848 384.902L174.307 390.766C174.559 393.99 174.935 397.969 175.142 399.606C175.48 402.286 175.629 402.769 176.631 404.45C177.923 406.615 179.333 407.973 180.289 407.973C180.656 407.973 181.761 407.457 182.744 406.826C183.728 406.195 184.684 405.675 184.87 405.671C185.055 405.666 185.447 405.493 185.74 405.285C186.225 404.942 186.303 404.96 186.614 405.484C187.303 406.646 187.06 408.035 185.903 409.548C184.432 411.474 184.319 412.036 185.206 413.024C186.419 414.375 189.178 414.753 191.174 413.841C191.783 413.564 192.816 412.876 193.47 412.313C194.124 411.75 195.287 410.952 196.054 410.54C198.543 409.203 201.391 405.937 202.194 403.5C202.498 402.577 203.177 401.101 203.703 400.22C204.228 399.34 204.658 398.45 204.658 398.242C204.658 398.035 204.979 397.587 205.371 397.247C205.763 396.907 206.39 396.179 206.764 395.629C207.138 395.079 207.549 394.506 207.677 394.355C207.804 394.203 208.574 392.875 209.387 391.403C212.406 385.935 212.964 385.034 213.333 385.032C213.631 385.029 213.68 384.676 213.566 383.344C213.426 381.709 213.376 381.614 211.918 380.221C209.609 378.013 209.201 377.073 209.06 373.636C208.914 370.061 209.293 368.123 210.593 365.796C212.548 362.298 214.282 361.345 218.874 361.244L221.152 361.194L222.747 362.341C223.625 362.972 225.146 364.011 226.128 364.651C227.986 365.86 229.155 367.386 230.265 370.047C232.016 374.245 231.095 379.646 228.337 381.356C227.152 382.091 221.591 383.755 220.319 383.755C219.508 383.755 219.273 384.007 216.445 387.898C214.789 390.176 212.881 393.073 212.205 394.335C211.529 395.597 210.716 396.849 210.399 397.117C210.081 397.385 209.148 398.782 208.325 400.22C207.502 401.658 206.722 402.872 206.592 402.918C206.463 402.964 205.839 403.977 205.206 405.169C204.574 406.361 203.549 407.967 202.929 408.738C200.285 412.027 199.812 413.39 200.609 415.43C200.968 416.349 201.032 416.386 202.261 416.386C203.253 416.386 203.629 416.506 203.941 416.923C204.162 417.219 204.461 417.392 204.606 417.309C204.75 417.225 204.932 417.385 205.01 417.663C205.198 418.338 205.537 418.303 206.549 417.505C207.358 416.867 208.879 416.343 209.901 416.351C210.166 416.354 210.305 416.237 210.211 416.094C210.047 415.846 211.376 415.91 214.21 416.288C215.79 416.498 216.249 417.331 216.414 420.288L216.554 422.784L218.019 424.038C219.635 425.422 221.825 426.583 222.816 426.583C223.907 426.583 224.926 425.91 226.948 423.853C229.246 421.517 229.692 421.251 231.333 421.239C232.369 421.231 232.737 421.371 233.578 422.092C234.628 422.994 234.813 423.689 234.323 424.896C233.937 425.847 232.176 427.573 231.033 428.119C229.916 428.653 227.095 430.98 226.676 431.712C226.14 432.651 225.913 434.593 226.194 435.833C226.5 437.183 227.045 437.644 228.64 437.906C229.186 437.995 229.703 438.238 229.787 438.444C229.999 438.96 230.598 438.915 231.153 438.34C231.595 437.882 232.052 437.792 236.011 437.376C236.722 437.302 237.303 437.137 237.303 437.01C237.303 436.884 237.845 436.78 238.506 436.78C239.605 436.78 239.872 436.64 241.59 435.163C243.455 433.559 246.778 431.382 247.847 431.064C248.726 430.802 249.649 429.796 250.988 427.635C251.672 426.533 252.421 425.562 252.652 425.479C252.883 425.396 253.629 424.514 254.31 423.518C255.348 422.001 255.778 421.608 256.968 421.089C258.638 420.36 259.12 420.312 259.011 420.884C258.878 421.584 259.581 421.57 259.923 420.867C260.308 420.075 260.421 420.066 261.809 420.73C263.83 421.696 264.705 424.083 263.828 426.235C263.118 427.979 260.878 430.967 259.215 432.392C257.643 433.739 251.78 437.577 249.958 438.452C248.537 439.135 246.796 440.1 246.281 440.491C246.057 440.662 245.12 441.083 244.201 441.427C241.882 442.295 235.606 445.585 234.946 446.279C234.646 446.593 234.086 447.37 233.699 448.005C233.313 448.641 231.814 450.19 230.368 451.447C228.921 452.704 227.516 454.134 227.246 454.625C226.667 455.674 224.102 463.237 223.846 464.648C223.412 467.048 224.894 469.973 226.592 470.067C227.022 470.091 227.588 470.125 227.85 470.143C228.208 470.168 228.326 470.402 228.326 471.085C228.326 471.585 228.453 472.215 228.607 472.486C228.943 473.073 230.771 473.993 231.648 474.016L232.271 474.032L231.641 474.269C230.88 474.555 231.101 475.019 231.999 475.019C232.784 475.019 233.163 474.545 232.646 474.209C232.389 474.043 232.486 474.025 232.951 474.151C233.325 474.252 233.784 474.317 233.971 474.295C234.158 474.273 234.495 474.236 234.719 474.212C234.944 474.189 235.127 473.936 235.127 473.651C235.127 473.293 235.215 473.215 235.409 473.397C235.594 473.571 235.603 473.88 235.435 474.294C235.054 475.234 236.585 477.47 238.013 478.058C239.107 478.509 244.305 482.833 244.351 483.33C244.365 483.484 244.745 484.087 245.195 484.668C246.65 486.551 247.696 485.988 248.066 483.124C248.456 480.11 249.509 477.354 250.987 475.481C251.909 474.313 253.423 473.494 255.148 473.232C256.178 473.075 257.169 472.714 257.908 472.226C258.543 471.807 259.216 471.5 259.405 471.543C259.593 471.586 259.655 471.573 259.542 471.514C259.428 471.455 259.409 471.296 259.498 471.161C259.587 471.026 259.949 471.208 260.303 471.565C261.159 472.431 262.593 472.425 264.47 471.548C265.797 470.928 266.075 470.892 268.4 471.032C269.775 471.115 271.668 471.257 272.605 471.348C273.951 471.478 274.76 471.39 276.458 470.93L278.607 470.348L283.052 471.066C285.496 471.461 288.781 471.867 290.352 471.969C292.354 472.098 293.575 472.314 294.433 472.689C295.106 472.983 296.011 473.226 296.443 473.229C296.876 473.232 297.375 473.421 297.552 473.648C297.77 473.928 298.067 474.005 298.466 473.886C299.061 473.709 299.293 473.235 298.786 473.235C298.636 473.235 298.513 473.12 298.513 472.98C298.513 472.84 298.667 472.725 298.854 472.725C299.28 472.725 305.775 469.76 307.71 468.682C308.837 468.054 309.265 467.934 309.664 468.135C310.307 468.457 311.219 468.151 312.814 467.077C313.808 466.408 314.159 466.306 315.018 466.437C315.868 466.566 316.365 466.428 317.969 465.618C319.029 465.082 320.378 464.558 320.966 464.455C322.427 464.198 322.997 463.873 322.997 463.298C322.997 462.758 323.958 462.018 324.658 462.018C324.906 462.018 325.446 461.604 325.858 461.098C326.749 460.003 328.974 458.965 330.437 458.961C332.38 458.957 333.3 459.969 332.868 461.636L332.868 461.636ZM277.431 471.844C275.556 473.129 275.642 473.107 272.544 473.107C269.491 473.107 268.86 473.239 268.86 473.876C268.86 474.167 269.372 474.208 271.648 474.099C275.484 473.916 276.866 473.596 277.865 472.66C278.492 472.072 278.605 471.835 278.334 471.678C278.124 471.556 277.752 471.624 277.431 471.844L277.431 471.844ZM250.948 480.43C250.438 479.677 249.307 483.817 249.672 485.102L249.885 485.854L250.527 484.58C251.176 483.292 251.399 481.096 250.948 480.43L250.948 480.43ZM245.344 485.322C245.129 485.322 244.885 485.447 244.802 485.599C244.629 485.917 245.329 486.301 245.574 486.022C245.866 485.691 245.745 485.322 245.344 485.322L245.344 485.322ZM219.329 367.685C219.201 367.685 218.958 367.926 218.789 368.222C218.351 368.989 218.95 369.548 219.484 368.871C219.857 368.397 219.764 367.685 219.329 367.685L219.329 367.685ZM212.919 371.526C212.687 371.31 212.284 372.14 212.28 372.842C212.274 373.694 212.691 373.973 213.073 373.372C213.333 372.963 213.238 371.826 212.919 371.526L212.919 371.526ZM184.176 415.761C183.834 415.559 183.611 415.596 183.276 415.909C182.865 416.294 182.886 416.359 183.566 416.777C184.19 417.159 184.338 417.173 184.546 416.866C184.854 416.408 184.752 416.102 184.176 415.761L184.176 415.761ZM180.019 409.901C178.94 410.053 178.723 410.004 178.37 409.533C178.015 409.057 176.663 408.228 176.243 408.228C175.767 408.228 176.239 409.056 177.157 409.834C178.705 411.145 179.234 411.365 179.97 411.007C181.671 410.18 181.694 409.666 180.019 409.901L180.019 409.901ZM178.18 550.096C177.923 550.183 177.727 550.505 177.745 550.812C177.777 551.351 177.793 551.353 178.18 550.861C178.732 550.159 178.732 549.91 178.18 550.096L178.18 550.096ZM170.266 404.553C169.912 404.393 169.551 407.512 169.787 408.69C169.876 409.134 170.088 409.435 170.259 409.358C170.658 409.178 170.665 404.733 170.266 404.553L170.266 404.553ZM155.122 416.492C154.123 416.008 153.514 416.16 153.514 416.892C153.514 417.586 155.364 418.397 155.726 417.862C156.133 417.259 155.978 416.907 155.122 416.492L155.122 416.492ZM139.529 499.748C139.295 499.958 139.104 500.245 139.104 500.385C139.104 500.525 139.295 500.468 139.529 500.258C139.763 500.047 139.954 499.761 139.954 499.62C139.954 499.48 139.763 499.538 139.529 499.748L139.529 499.748ZM84.7055 460.509C84.3355 459.961 83.8243 462.017 83.9311 463.623L84.0194 464.95L84.4784 464.058C84.974 463.094 85.1018 461.096 84.7055 460.509L84.7055 460.509ZM70.1553 462.009C69.5973 462.511 69.5973 463.102 70.1553 462.901C70.3964 462.815 70.5906 462.493 70.5869 462.185C70.5814 461.731 70.5007 461.698 70.1553 462.009L70.1553 462.009ZM65.832 465.714C65.5714 465.801 65.3732 466.066 65.3915 466.303C65.4187 466.654 65.5001 466.64 65.832 466.224C66.3767 465.542 66.3767 465.533 65.832 465.714L65.832 465.714ZM60.3757 483.549C59.823 484.251 59.823 484.501 60.3757 484.314C60.6327 484.228 60.8282 483.905 60.8102 483.598C60.7785 483.06 60.7629 483.058 60.3757 483.549L60.3757 483.549ZM332.919 385.284C332.622 385.284 332.521 385.105 332.694 384.886C332.868 384.667 333.111 384.488 333.234 384.488C333.358 384.488 333.459 384.667 333.459 384.886C333.459 385.105 333.216 385.284 332.919 385.284L332.919 385.284ZM331.824 302.652C331.439 302.936 330.478 303.24 329.667 303.335C327.856 303.547 327.194 303.364 328.302 302.959C328.751 302.795 329.616 302.437 330.224 302.164C332.165 301.292 333.228 301.617 331.824 302.652L331.824 302.652ZM329.617 338.962C329.242 339.313 328.71 339.114 328.71 338.623C328.71 338.283 328.891 338.113 329.254 338.113C329.778 338.113 329.991 338.612 329.617 338.962L329.617 338.962ZM328.588 326.386C328.325 326.386 328.164 326.232 328.23 326.043C328.416 325.507 329.065 325.418 329.065 325.928C329.065 326.18 328.85 326.386 328.588 326.386L328.588 326.386ZM328.807 299.699C328.388 300.091 327.623 299.864 327.623 299.346C327.623 298.95 327.77 298.839 328.214 298.9C328.827 298.985 329.132 299.395 328.807 299.699L328.807 299.699ZM328.257 313.734C327.935 314.035 327.154 313.915 326.794 313.508C326.306 312.957 327.05 312.251 327.863 312.492C328.412 312.656 328.64 313.374 328.257 313.734L328.257 313.734ZM326.467 327.925C326.204 327.925 325.99 327.719 325.99 327.467C325.99 326.957 326.639 327.046 326.825 327.582C326.891 327.77 326.729 327.925 326.467 327.925L326.467 327.925ZM326.136 307.427C325.341 307.614 324.643 307.174 324.643 306.485C324.643 306.193 324.903 305.95 325.323 305.852C326.3 305.622 326.82 305.891 326.82 306.626C326.82 307.098 326.639 307.309 326.136 307.427L326.136 307.427ZM326.022 308.797C325.387 309.115 324.644 309.142 324.644 308.847C324.644 308.624 325.835 308.041 326.289 308.041C326.739 308.041 326.569 308.522 326.022 308.797L326.022 308.797ZM324.533 338.887C324.254 338.887 324.117 338.708 324.227 338.489C324.338 338.27 324.566 338.091 324.734 338.091C324.902 338.091 325.039 338.27 325.039 338.489C325.039 338.708 324.811 338.887 324.533 338.887L324.533 338.887ZM323.697 362.596C323.152 362.596 323.247 361.987 323.819 361.813C324.021 361.751 324.186 361.902 324.186 362.148C324.186 362.395 323.966 362.596 323.697 362.596L323.697 362.596ZM323.618 326.677C323.415 326.877 323.171 326.915 323.075 326.762C322.815 326.347 323.197 325.895 323.619 326.119C323.914 326.276 323.914 326.385 323.619 326.677L323.618 326.677ZM321.729 404.84C321.654 405.016 321.349 405.159 321.052 405.159C320.233 405.159 320.46 403.787 321.297 403.675C321.908 403.594 322.073 404.041 321.729 404.84L321.729 404.84ZM321.457 319.44C321.298 319.807 320.112 319.872 319.884 319.527C319.44 318.854 320.603 317.997 321.263 318.511C321.656 318.817 321.679 318.924 321.456 319.44L321.457 319.44ZM319.42 422.708C319.03 423.073 318.114 423.115 318.114 422.768C318.114 422.499 318.991 421.994 319.457 421.994C319.842 421.994 319.824 422.329 319.42 422.708L319.42 422.708ZM318.229 336.848C317.932 336.848 317.83 336.668 318.004 336.449C318.177 336.23 318.42 336.051 318.544 336.051C318.668 336.051 318.769 336.23 318.769 336.449C318.769 336.668 318.526 336.848 318.229 336.848L318.229 336.848ZM316.635 421.484C316.401 421.484 316.21 421.305 316.21 421.086C316.21 420.867 316.401 420.687 316.635 420.687C316.869 420.687 317.06 420.867 317.06 421.086C317.06 421.305 316.869 421.484 316.635 421.484L316.635 421.484ZM316.28 307.85C316.212 308.124 315.915 308.296 315.51 308.296C314.985 308.296 314.85 308.164 314.85 307.651C314.85 307.296 315.043 306.936 315.279 306.851C315.82 306.656 316.426 307.261 316.28 307.85L316.28 307.85ZM315.249 381.525C314.41 382.417 313.575 382.506 314.044 381.652C314.441 380.931 315.403 379.931 315.7 379.931C316.149 379.931 315.891 380.84 315.249 381.525L315.249 381.525ZM315.742 373.133C315.494 373.365 314.563 373.348 314.568 373.111C314.578 372.639 315.092 372.223 315.488 372.365C315.945 372.529 316.049 372.845 315.742 373.133L315.742 373.133ZM315.416 353.017C314.794 353.545 313.665 353.46 313.547 352.876C313.422 352.264 314.231 351.634 315.141 351.634C316.095 351.634 316.232 352.325 315.416 353.017L315.416 353.017ZM315.075 350.169C314.717 350.768 314.02 350.736 314.02 350.12C314.02 349.51 314.43 349.245 314.95 349.517C315.234 349.666 315.268 349.845 315.075 350.169L315.075 350.169ZM312.181 427.642C311.771 427.999 311.077 428.505 310.638 428.766C309.363 429.526 310.088 428.57 311.529 427.592C312.895 426.665 313.269 426.694 312.181 427.642L312.181 427.642ZM311.177 338.623C310.914 338.623 310.753 338.468 310.819 338.28C311.005 337.744 311.654 337.655 311.654 338.165C311.654 338.417 311.439 338.623 311.177 338.623L311.177 338.623ZM310.344 319.467C309.958 319.632 309.371 319.764 309.042 319.76C308.49 319.753 308.514 319.692 309.348 318.981C309.846 318.556 310.397 318.254 310.572 318.308C311.177 318.497 311.046 319.168 310.344 319.467L310.344 319.467ZM309.939 335.828C309.74 336.129 309.621 336.142 309.352 335.89C309.089 335.644 309.087 335.505 309.34 335.267C309.782 334.854 310.276 335.317 309.939 335.828L309.939 335.828ZM309.613 360.505C309.226 360.868 308.579 360.911 308.579 360.575C308.579 360.444 308.771 360.158 309.006 359.937C309.241 359.717 309.547 359.537 309.686 359.537C310.046 359.537 309.999 360.143 309.613 360.505L309.613 360.505ZM309.154 303.668C308.814 304.171 307.912 303.917 307.816 303.291C307.727 302.708 308.32 302.355 308.987 302.595C309.442 302.759 309.503 303.152 309.154 303.668L309.154 303.668ZM306.805 353.273C306.257 353.786 305.357 353.709 304.959 353.115C304.548 352.499 305.472 351.584 306.402 351.686C307.25 351.778 307.471 352.648 306.805 353.273L306.805 353.273ZM306.823 341.171C306.281 341.593 305.477 341.404 305.359 340.827C305.245 340.275 305.733 339.916 306.606 339.911C307.319 339.906 307.453 340.682 306.823 341.171L306.823 341.171ZM305.715 335.159C304.92 335.444 304.733 335.331 304.82 334.617C304.882 334.113 305.059 333.916 305.45 333.916C306.138 333.916 306.354 334.929 305.715 335.159L305.715 335.159ZM303.206 435.806C302.944 436.02 302.438 436.337 302.081 436.51C301.456 436.814 301.439 436.798 301.623 436.097C301.896 435.057 302.47 434.311 303.12 434.151C303.587 434.037 303.682 434.132 303.682 434.715C303.682 435.101 303.468 435.592 303.206 435.806L303.206 435.806ZM302.722 320.523C302.425 320.523 302.324 320.344 302.497 320.125C302.671 319.906 302.914 319.727 303.037 319.727C303.161 319.727 303.262 319.906 303.262 320.125C303.262 320.344 303.019 320.523 302.722 320.523L302.722 320.523ZM302.203 364.88C301.97 364.88 301.778 364.701 301.778 364.482C301.778 364.263 301.97 364.084 302.203 364.084C302.437 364.084 302.628 364.263 302.628 364.482C302.628 364.701 302.437 364.88 302.203 364.88L302.203 364.88ZM301.822 488.344C301.112 488.946 299.634 489.471 298.159 489.644C297.448 489.727 296.292 489.863 295.589 489.946C294.501 490.074 294.359 490.042 294.633 489.732C294.811 489.532 295.478 489.224 296.116 489.049C296.753 488.874 297.835 488.397 298.518 487.991C300.027 487.094 301.334 486.806 301.899 487.246C302.427 487.656 302.414 487.842 301.822 488.344L301.822 488.344ZM300.027 365.655C299.793 365.655 299.602 365.476 299.602 365.257C299.602 365.037 299.793 364.858 300.027 364.858C300.261 364.858 300.452 365.037 300.452 365.257C300.452 365.476 300.261 365.655 300.027 365.655L300.027 365.655ZM300.236 339.992C299.843 340.36 299.057 340.151 299.057 339.679C299.057 339.178 299.739 338.78 300.17 339.029C300.459 339.197 300.497 339.748 300.236 339.992L300.236 339.992ZM298.761 439.192C298.149 439.71 297.589 440.078 297.517 440.01C297.242 439.753 298.672 438.085 299.258 437.98C300.146 437.821 300.021 438.125 298.761 439.192L298.761 439.192ZM298.363 302.641C297.772 302.509 297.736 301.989 298.309 301.87C298.607 301.808 298.785 301.952 298.785 302.254C298.785 302.535 298.609 302.697 298.363 302.641L298.363 302.641ZM298.098 347.045C297.8 347.045 297.699 346.866 297.873 346.647C298.046 346.428 298.289 346.248 298.413 346.248C298.537 346.248 298.638 346.428 298.638 346.647C298.638 346.866 298.395 347.045 298.098 347.045L298.098 347.045ZM296.183 441.466C294.624 443.38 288.72 447.907 288.72 447.189C288.72 446.749 292.415 443.49 295.045 441.612C296.204 440.783 297.153 440.143 297.153 440.19C297.153 440.237 296.716 440.811 296.183 441.466L296.183 441.466ZM295.913 390.46C295.585 390.767 295.249 390.655 295.249 390.238C295.249 390.018 295.441 389.838 295.676 389.838C296.12 389.838 296.24 390.154 295.913 390.46L295.913 390.46ZM294.805 297.039C294.412 297.207 294.014 297.273 293.922 297.187C293.713 296.991 294.679 296.306 295.165 296.306C295.763 296.306 295.562 296.716 294.805 297.039L294.805 297.039ZM294.918 328.599C294.51 329.008 293.875 329.042 293.875 328.655C293.875 328.326 294.544 328.025 294.964 328.165C295.159 328.23 295.144 328.374 294.918 328.599L294.918 328.599ZM294.687 349.519C294.554 349.828 293.919 350.329 293.276 350.632C292.633 350.935 291.904 351.35 291.657 351.553C291.406 351.759 291.139 351.818 291.052 351.685C290.779 351.271 293.547 348.83 294.291 348.83C294.66 348.83 294.955 348.858 294.945 348.893C294.936 348.928 294.82 349.21 294.687 349.519L294.687 349.519ZM294.509 305.692C293.826 305.557 293.733 304.906 294.396 304.906C294.73 304.906 294.963 305.086 294.963 305.344C294.963 305.603 294.777 305.745 294.509 305.692L294.509 305.692ZM290.935 411.801C289.856 413.374 286.456 416.376 285.753 416.376C284.933 416.376 285.028 415.622 285.996 414.438C286.444 413.892 287.378 412.663 288.073 411.707C289.588 409.623 290.341 409.079 291.15 409.484C291.912 409.866 291.857 410.456 290.935 411.801L290.935 411.801ZM288.873 300.903C288.639 300.903 288.448 300.724 288.448 300.505C288.448 300.286 288.639 300.107 288.873 300.107C289.106 300.107 289.298 300.286 289.298 300.505C289.298 300.724 289.106 300.903 288.873 300.903L288.873 300.903ZM287.98 303.478C287.777 303.678 287.533 303.716 287.437 303.563C287.177 303.148 287.56 302.696 287.981 302.92C288.276 303.077 288.276 303.186 287.981 303.479L287.98 303.478ZM287.512 390.893C287.279 390.893 287.087 390.713 287.087 390.494C287.087 390.275 287.279 390.096 287.512 390.096C287.746 390.096 287.938 390.275 287.938 390.494C287.938 390.713 287.746 390.893 287.512 390.893L287.512 390.893ZM286.26 449.837C283.704 452.524 275.408 458.796 274.962 458.378C274.729 458.16 278.206 454.564 280.09 453.074C282.293 451.33 287.632 447.95 287.632 448.298C287.632 448.351 287.014 449.044 286.26 449.837L286.26 449.837ZM286.883 301.875C286.621 301.827 286.407 301.62 286.407 301.413C286.407 301.207 286.621 300.999 286.883 300.952C287.217 300.892 287.359 301.029 287.359 301.413C287.359 301.797 287.217 301.935 286.883 301.875L286.883 301.875ZM284.792 310.072C284.558 310.072 284.367 309.893 284.367 309.674C284.367 309.454 284.558 309.275 284.792 309.275C285.026 309.275 285.217 309.454 285.217 309.674C285.217 309.893 285.026 310.072 284.792 310.072L284.792 310.072ZM283.212 350.859C282.949 350.859 282.735 350.654 282.735 350.402C282.735 349.891 283.384 349.98 283.57 350.516C283.636 350.705 283.475 350.859 283.212 350.859L283.212 350.859ZM275.814 371.509C275.58 371.509 275.389 371.329 275.389 371.11C275.389 370.891 275.58 370.712 275.814 370.712C276.048 370.712 276.239 370.891 276.239 371.11C276.239 371.329 276.048 371.509 275.814 371.509L275.814 371.509ZM273.19 428.508C272.685 428.801 272.262 428.189 272.66 427.741C272.851 427.524 273.115 427.347 273.246 427.347C273.589 427.347 273.542 428.304 273.19 428.508L273.19 428.508ZM267.5 335.946C267.334 336.043 266.89 336.049 266.515 335.961C266.004 335.841 265.854 335.659 265.918 335.236C266.041 334.428 267.597 334.415 267.72 335.221C267.766 335.523 267.667 335.85 267.5 335.946L267.5 335.946ZM264.609 299.833C264.058 300.467 262.564 300.888 260.835 300.897L259.747 300.902L261.651 300.001C262.821 299.447 263.857 299.128 264.337 299.173C265.117 299.247 265.118 299.248 264.609 299.833L264.609 299.833ZM264.389 326.386C264.155 326.386 263.964 326.207 263.964 325.988C263.964 325.769 264.155 325.59 264.389 325.59C264.622 325.59 264.814 325.769 264.814 325.988C264.814 326.207 264.622 326.386 264.389 326.386L264.389 326.386ZM260.472 325.807C259.779 326.253 259.334 326.044 259.804 325.493C259.965 325.304 260.325 325.206 260.602 325.273C261.055 325.384 261.042 325.439 260.472 325.807L260.472 325.807ZM257.419 450.147C256.28 451.111 254.189 452.432 252.558 453.217L251.625 453.665L252.468 452.68C252.931 452.137 253.921 451.135 254.667 450.452C255.836 449.382 256.198 449.199 257.273 449.132C257.961 449.089 258.523 449.089 258.523 449.133C258.523 449.177 258.026 449.633 257.419 450.147L257.419 450.147ZM257.239 307.294C257.037 307.493 256.792 307.531 256.696 307.378C256.436 306.963 256.819 306.511 257.24 306.735C257.536 306.892 257.535 307.001 257.239 307.294L257.239 307.294ZM252.414 448.252C252.137 448.252 251.986 448.078 252.043 447.827C252.187 447.187 252.881 447.099 252.881 447.721C252.881 448.034 252.689 448.252 252.414 448.252L252.414 448.252ZM248.371 456.252C248.174 456.504 247.778 456.668 247.49 456.616C246.992 456.526 246.996 456.495 247.576 455.951C248.542 455.046 249.137 455.271 248.371 456.252L248.371 456.252ZM248.61 325.203C248.377 325.04 248.185 324.812 248.185 324.696C248.185 324.58 248.377 324.485 248.61 324.485C248.844 324.485 249.035 324.713 249.035 324.992C249.035 325.27 248.844 325.365 248.61 325.203L248.61 325.203ZM245.101 517.22C244.848 517.311 244.452 517.238 244.22 517.057C243.84 516.762 243.843 516.705 244.252 516.491C244.57 516.324 244.834 516.373 245.134 516.654C245.522 517.018 245.519 517.069 245.101 517.22L245.101 517.22ZM245.096 482.148C244.818 482.148 244.68 481.969 244.791 481.75C244.901 481.531 245.129 481.351 245.297 481.351C245.465 481.351 245.603 481.531 245.603 481.75C245.603 481.969 245.375 482.148 245.096 482.148L245.096 482.148ZM244.672 459.376C244.385 459.815 243.681 460.498 243.107 460.894C242.534 461.29 241.33 462.258 240.432 463.046C238.379 464.848 237.794 465.202 235.805 465.843C234.923 466.127 233.928 466.6 233.595 466.893C233.262 467.186 232.828 467.375 232.63 467.313C232.414 467.244 232.612 467.033 233.128 466.782C233.6 466.552 234.236 465.989 234.54 465.53C235.334 464.333 237.06 462.852 240.034 460.813C243.203 458.641 243.678 458.396 244.526 458.497L245.193 458.577L244.672 459.376ZM240.472 306.766C240.193 306.766 240.056 306.587 240.166 306.368C240.276 306.149 240.504 305.97 240.672 305.97C240.84 305.97 240.978 306.149 240.978 306.368C240.978 306.587 240.75 306.766 240.472 306.766L240.472 306.766ZM240.162 471.466C239.923 471.878 239.128 472.405 238.064 472.858C237.122 473.26 236.259 473.631 236.147 473.683C236.035 473.735 235.943 473.486 235.943 473.128C235.943 472.299 237.34 470.799 238.732 470.134C240.417 469.328 241.056 469.925 240.162 471.466L240.162 471.466ZM238.298 401.718C237.395 404.261 236.563 405.344 234.598 406.535C233.555 407.167 232.336 407.862 231.888 408.079C230.742 408.634 228.561 408.592 227.751 407.998C227.394 407.737 226.406 407.216 225.556 406.841C220.995 404.826 219.666 399.574 222.408 394.396C223.476 392.38 226.589 389.354 227.596 389.354C227.973 389.354 229.029 389.174 229.941 388.955C232.487 388.344 233.435 388.724 235.583 391.215C238.185 394.233 238.478 394.898 238.576 398.002C238.632 399.769 238.536 401.049 238.299 401.718L238.298 401.718ZM230.105 392.827C229.633 392.996 229.305 393.825 229.557 394.207C229.835 394.63 230.502 393.977 230.502 393.282C230.502 392.862 230.384 392.726 230.105 392.827L230.105 392.827ZM223.148 397.995C222.538 398.681 222.519 398.778 222.889 399.305C223.127 399.645 223.187 399.645 223.425 399.305C223.572 399.095 223.69 398.579 223.688 398.158L223.683 397.393L223.148 397.995L223.148 397.995ZM231.53 583.34C230.996 584.281 229.871 584.938 228.561 585.072C227.573 585.173 227.177 585.069 226.198 584.448C225.551 584.038 224.787 583.369 224.499 582.96C223.401 581.398 224.116 579.368 226.14 578.301C227.125 577.783 227.357 577.752 228.262 578.023C229.756 578.471 230.913 579.191 231.25 579.883C231.764 580.941 231.905 582.679 231.53 583.34L231.53 583.34ZM231.744 468.227C231.51 468.39 231.319 468.295 231.319 468.016C231.319 467.738 231.51 467.51 231.744 467.51C231.977 467.51 232.169 467.605 232.169 467.721C232.169 467.837 231.977 468.065 231.744 468.227L231.744 468.227ZM230.384 469.091C230.139 469.339 229.958 469.373 229.958 469.17C229.958 468.976 230.15 468.728 230.384 468.618C230.617 468.509 230.809 468.473 230.809 468.539C230.809 468.605 230.617 468.853 230.384 469.091L230.384 469.091ZM228.351 343.603C227.553 347.664 225.53 350.297 221.946 351.941C219.881 352.889 219.656 352.937 217.988 352.789C215.643 352.582 214.452 352.169 214.452 351.565C214.452 351.204 214.319 351.129 213.903 351.252C212.777 351.587 210.243 349.526 209.287 347.498L208.72 346.294L209.273 345.278C210.228 343.525 209.969 342.201 208.672 342.201L207.847 342.201L208.03 340.527C208.481 336.409 209.619 334.775 213.979 331.988C218.06 329.379 218.556 329.308 222.012 330.84C224.139 331.783 224.353 331.954 225.775 333.856C226.605 334.965 227.64 336.58 228.076 337.444C228.99 339.253 229.03 340.154 228.351 343.603L228.351 343.603ZM218.82 336.328C218.449 336.328 217.716 337.383 217.716 337.915C217.716 338.497 218.422 338.502 218.782 337.922C219.134 337.356 219.158 336.329 218.82 336.329L218.82 336.328ZM226.353 622.976C225.583 623.174 224.517 622.128 224.517 621.174C224.517 620.719 223.99 619.995 222.792 618.805C221.843 617.863 220.682 616.46 220.211 615.689C218.655 613.14 218.067 609.622 219.197 609.622C219.946 609.622 221.19 610.908 221.828 612.342C222.185 613.143 223.043 614.838 223.734 616.108C224.426 617.378 225.085 618.704 225.199 619.055C225.313 619.405 225.757 620.069 226.186 620.529C227.164 621.58 227.244 622.748 226.353 622.976L226.353 622.976ZM208.985 344.943C208.901 345.119 208.688 345.199 208.513 345.119C208.101 344.934 208.095 343.986 208.505 343.986C208.908 343.986 209.182 344.532 208.985 344.943L208.985 344.943ZM165.796 357.691C165.358 358.338 164.905 357.345 164.993 355.932C165.072 354.652 165.098 354.61 165.552 355.037C166.05 355.506 166.197 357.099 165.796 357.691L165.796 357.691ZM164.009 615.802C163.568 616.957 162.841 618.035 162.502 618.035C162.365 618.035 161.687 618.493 160.995 619.054L159.738 620.074L157.234 620.074C154.841 620.074 154.671 620.036 153.366 619.213C150.12 617.164 148.821 613.3 150.297 610.085C150.851 608.878 151.028 608.733 153.071 607.807C156.573 606.22 158.412 606.423 161.681 608.759C164.082 610.474 164.99 613.224 164.009 615.802L164.009 615.802ZM157.942 607.807C157.738 608.014 157.664 608.242 157.779 608.314C157.893 608.385 158.154 608.275 158.358 608.068C158.562 607.861 158.635 607.633 158.521 607.561C158.406 607.489 158.146 607.6 157.942 607.807L157.942 607.807ZM152.44 610.748C152.242 610.978 152.15 611.421 152.235 611.732C152.387 612.291 152.394 612.29 152.798 611.661C153.301 610.878 152.997 610.103 152.44 610.748L152.44 610.748ZM163.601 342.839L163.398 343.604L163.229 342.712C163.136 342.221 162.983 340.959 162.889 339.908C162.794 338.856 162.35 336.921 161.901 335.608C160.921 332.741 160.676 330.875 161.115 329.627C161.395 328.835 161.355 328.46 160.831 326.935C160.253 325.252 160.245 325.132 160.683 324.506C161.719 323.025 162.64 324.108 162.372 326.492C162.228 327.763 162.309 328.338 162.806 329.583C163.35 330.946 163.42 331.612 163.446 335.701C163.462 338.225 163.549 340.692 163.639 341.182C163.729 341.673 163.712 342.419 163.601 342.839L163.601 342.839ZM151.181 600.316C150.489 601.56 150.023 601.898 148.784 602.058C146.35 602.37 144.513 601.203 143.985 599.009C143.707 597.854 144.286 596.332 145.285 595.596C146.259 594.878 148.257 594.914 149.455 595.67C151.399 596.898 152.073 598.713 151.181 600.316L151.181 600.316ZM148.226 595.73C147.993 595.73 147.801 595.957 147.801 596.236C147.801 596.514 147.993 596.609 148.226 596.447C148.46 596.284 148.651 596.056 148.651 595.94C148.651 595.824 148.46 595.73 148.226 595.73L148.226 595.73ZM150.082 582.217C149.515 586.226 147.191 588.814 143.727 589.295C142.9 589.409 141.769 589.567 141.212 589.646C139.576 589.878 137.46 589.099 135.509 587.545C134.564 586.792 133.701 586.174 133.591 586.172C133.308 586.167 131.918 583.499 131.347 581.865C130.681 579.961 130.925 578.468 132.311 575.971C133.636 573.586 134.824 572.636 137.423 571.884C139.682 571.23 140.616 571.252 142.765 572.01C147.906 573.823 150.714 577.74 150.082 582.217L150.082 582.217ZM142.622 574.198C142.248 574.751 142.689 575.06 143.107 574.537C143.384 574.193 143.402 574.028 143.172 573.958C142.995 573.904 142.748 574.012 142.622 574.198L142.622 574.198ZM135.27 577.298C134.82 577.423 134.568 579.021 134.998 579.021C135.365 579.021 135.594 578.571 135.625 577.789C135.64 577.421 135.504 577.234 135.27 577.298L135.27 577.298ZM117.376 410.768C117.25 410.768 117.008 410.481 116.838 410.131C116.473 409.382 116.904 409.254 117.323 409.986C117.664 410.584 117.676 410.768 117.376 410.768L117.376 410.768ZM109.773 403.06C109.249 402.652 108.654 401.501 107.912 399.458C107.153 397.364 107.152 397.36 107.658 397.754C107.873 397.921 108.088 398.308 108.134 398.614C108.181 398.919 108.492 399.281 108.825 399.418C109.592 399.733 109.759 400.096 109.97 401.894C110.11 403.093 110.076 403.295 109.773 403.06L109.773 403.06ZM103.425 395.244C103.12 395.011 103.157 394.734 103.508 394.627C103.86 394.52 104.109 394.71 104.063 395.049C104.013 395.424 103.762 395.5 103.425 395.244L103.425 395.244ZM99.4311 444.671C99.015 445.378 98.6773 445.604 97.7877 445.769C97.0077 445.913 96.2166 446.363 95.1795 447.251C93.4186 448.759 92.6392 449.008 89.6635 449.008L87.4273 449.008L85.6658 447.463C83.4557 445.526 82.6807 444.1 82.6807 441.971C82.6807 440.703 82.8557 440.059 83.5682 438.703C84.403 437.114 84.5675 436.96 86.3329 436.127C90.0379 434.379 92.8499 435.21 97.7352 439.498C99.6036 441.139 99.7235 441.311 99.8358 442.51C99.9235 443.446 99.8169 444.016 99.4311 444.672L99.4311 444.671ZM92.8546 439.557C92.2826 439.732 92.1877 440.34 92.7325 440.34C93.0012 440.34 93.221 440.139 93.221 439.893C93.221 439.647 93.0561 439.496 92.8546 439.557L92.8546 439.557ZM86.6782 441.114C86.2995 441.114 85.9427 442.055 86.1943 442.391C86.3022 442.534 86.5202 442.586 86.6787 442.505C87.0544 442.314 87.054 441.114 86.6781 441.114L86.6782 441.114ZM96.6559 506.719C95.1343 508.007 93.7527 507.956 92.1041 506.549C91.3262 505.885 91.0541 504.543 91.495 503.546C91.9501 502.516 93.1093 501.987 94.6985 502.083C95.8915 502.155 96.0354 502.243 96.8607 503.4C98.0242 505.031 97.9897 505.59 96.6559 506.719L96.6559 506.719ZM84.1733 372.793C84.007 372.793 83.6567 372.561 83.3949 372.277C83.133 371.993 82.6689 371.506 82.3636 371.194C80.9127 369.711 77.8865 364.171 77.8862 362.997L77.886 362.25L79.0422 363.382C81.6943 365.977 85.4103 372.793 84.1733 372.793L84.1733 372.793ZM80.468 602.919C79.636 606.506 77.2401 609.928 73.8344 612.392C72.0094 613.712 71.2265 614.104 69.6375 614.491C64.9363 615.635 62.0466 614.654 57.2527 610.287C54.605 607.875 54.2957 607.373 52.9784 603.341C51.3882 598.474 51.5781 595.758 53.8136 591.394C55.8365 587.445 57.7033 585.923 61.1848 585.385C62.7991 585.135 63.472 585.153 65.265 585.494C69.2134 586.244 75.5537 589.588 77.568 591.981C78.6764 593.298 80.9044 599.298 80.8524 600.826C80.8428 601.107 80.6699 602.048 80.468 602.919L80.468 602.919ZM71.2751 589.983C70.8831 589.983 70.2686 590.481 70.2686 590.799C70.2686 591.108 70.9333 591.042 71.3023 590.697C71.7295 590.296 71.7176 589.983 71.2751 589.983L71.2751 589.983ZM59.9496 592.934C59.6082 592.737 58.8428 593.797 58.8428 594.467C58.8428 595.249 59.1375 595.405 59.7048 594.924C60.2263 594.482 60.3856 593.187 59.9496 592.934L59.9496 592.934ZM74.4965 356.86C74.1302 356.44 73.3044 355.203 72.6616 354.112C72.0187 353.02 70.9112 351.247 70.2005 350.171C68.9153 348.224 68.4792 346.652 69.307 346.95C69.7603 347.113 72.8171 352.407 73.5281 354.261C73.7865 354.934 74.2605 355.658 74.5816 355.869C74.9337 356.1 75.1648 356.524 75.1639 356.938L75.1626 357.625L74.4965 356.86L74.4965 356.86ZM67.1555 428.995C66.3775 431.268 65.6829 432.531 64.3249 434.141C62.8542 435.885 61.7231 436.479 58.5221 437.188C55.2731 437.907 53.3756 437.943 51.9054 437.312C50.6853 436.788 46.4339 433.718 45.7457 432.864C44.9177 431.836 42.792 426.343 42.792 425.232C42.792 425.009 43.0504 423.776 43.3661 422.49C43.7897 420.766 44.1465 419.933 44.7264 419.315C45.1587 418.853 45.5124 418.388 45.5124 418.281C45.5124 418.085 45.8494 417.719 47.4583 416.164C49.3247 414.361 52.1549 413.598 57.0362 413.58C58.929 413.572 59.362 413.665 60.8081 414.388C62.677 415.321 64.9437 417.139 65.5029 418.152C65.7123 418.531 66.3194 420.105 66.8518 421.648C67.9893 424.945 68.0488 426.384 67.1555 428.995L67.1555 428.995ZM63.44 357.121C62.9149 357.425 62.0246 356.348 62.2503 355.682L62.4503 355.091L63.0949 355.794C63.8097 356.572 63.8852 356.863 63.44 357.121L63.44 357.121ZM59.999 466.72C58.5937 466.581 58.0092 466.396 57.5089 465.931C56.9031 465.368 56.8789 465.249 57.1798 464.308C57.5337 463.201 57.8304 463.102 59.1916 463.636C60.7211 464.237 61.8353 465.292 61.8353 466.14L61.8353 466.902L59.999 466.72ZM61.4181 462.527C61.3385 462.527 60.8488 462.361 60.3299 462.158C59.2272 461.726 59.0944 461.109 60.0666 460.935C60.4997 460.858 60.7467 460.93 60.7467 461.133C60.7467 461.309 60.9303 461.519 61.1548 461.6C61.5284 461.734 61.7536 462.527 61.4181 462.527L61.4181 462.527ZM52.0282 446.722C51.3374 446.722 49.9309 446.07 49.1173 445.373C48.4457 444.798 48.2852 443.663 48.8753 443.663C49.6528 443.663 52.5491 445.906 52.5772 446.531C52.582 446.636 52.3349 446.722 52.0282 446.722L52.0282 446.722ZM46.9146 407.708C46.3686 407.708 45.5122 406.956 45.5122 406.477C45.5122 406.108 46.189 406.091 46.8903 406.442C47.5735 406.785 47.5912 407.708 46.9146 407.708L46.9146 407.708ZM42.4879 413.581C42.06 414.592 40.5852 415.864 39.5372 416.126C37.5767 416.615 34.9741 415.46 33.8628 413.607C33.1053 412.344 33.119 411.475 33.922 409.859C34.781 408.131 35.9493 407.364 37.742 407.351C40.5936 407.332 42.8071 409.22 42.7749 411.644C42.7655 412.359 42.6363 413.231 42.4879 413.581L42.4879 413.581ZM39.6809 408.706C39.4471 408.706 39.2559 408.885 39.2559 409.104C39.2559 409.323 39.4471 409.502 39.6809 409.502C39.9147 409.502 40.106 409.323 40.106 409.104C40.106 408.885 39.9147 408.706 39.6809 408.706L39.6809 408.706ZM35.1856 411.119C34.9762 411.349 34.9408 411.671 35.107 411.836C35.3123 412.04 35.5026 411.978 35.7011 411.643C36.0841 410.996 35.6759 410.582 35.1856 411.119L35.1856 411.119ZM38.9666 483.687C38.199 485.386 36.508 486.323 34.1992 486.328C32.2584 486.332 31.1674 485.835 29.9032 484.369C29.1661 483.515 29.0523 483.169 28.9798 481.565C28.8667 479.065 29.5592 477.886 31.5071 477.261C34.6507 476.252 37.4015 476.958 38.447 479.043C39.1308 480.406 39.3924 482.744 38.9666 483.687L38.9666 483.687ZM7.97223 488.204C6.90755 489.84 4.45734 490.526 2.34357 489.779C1.4142 489.451 -0.0965387 488.134 -0.621817 487.195C-1.40067 485.802 -0.935468 483.434 0.396567 482.013C1.17571 481.181 1.32833 481.128 2.9119 481.128C3.83913 481.128 4.92727 481.271 5.32999 481.446C6.05867 481.763 6.31302 482.147 5.79441 482.147C5.64479 482.147 5.52237 482.269 5.52237 482.418C5.52237 482.569 5.89629 482.654 6.36151 482.61C7.1096 482.538 7.27196 482.654 7.85775 483.673C8.69363 485.127 8.7415 487.022 7.97223 488.204L7.97223 488.204ZM1.47925 484.233C1.31267 484.424 1.17898 484.751 1.18218 484.962C1.18665 485.256 1.30486 485.232 1.69397 484.86C1.97226 484.594 2.10594 484.267 1.99104 484.132C1.87063 483.991 1.65383 484.034 1.47925 484.233L1.47925 484.233Z" id="path845" fill="url(#gradient_1)" fill-rule="evenodd" stroke="none" />
</svg>