<?xml version="1.0" encoding="utf-8"?>
<svg width="299px" height="133px" viewBox="0 0 299 133" version="1.1" xmlns:xlink="http://www.w3.org/1999/xlink" xmlns="http://www.w3.org/2000/svg">
  <defs>
    <linearGradient x1="0" y1="0" x2="1" y2="1" id="gradient_1">
      <stop offset="0" stop-color="#6BDBE4" />
      <stop offset="1" stop-color="#F4F440" />
    </linearGradient>
    <filter filterUnits="userSpaceOnUse" color-interpolation-filters="sRGB" id="filter_1">
      <feFlood flood-opacity="0" result="BackgroundImageFix" />
      <feColorMatrix in="SourceAlpha" type="matrix" values="0 0 0 0 0 0 0 0 0 0 0 0 0 0 0 0 0 0 127 0" />
      <feOffset dx="0" dy="2" />
      <feGaussianBlur stdDeviation="2" />
      <feColorMatrix type="matrix" values="0 0 0 0 0.39215687 0 0 0 0 0.39215687 0 0 0 0 0.39215687 0 0 0 0.49803922 0" />
      <feBlend mode="normal" in2="BackgroundImageFix" result="effect0_dropShadow" />
      <feBlend mode="normal" in="SourceGraphic" in2="effect0_dropShadow" result="shape" />
    </filter>
  </defs>
  <g id="Title">
    <g id="IconMain" transform="translate(65 0)">
      <g id="light-logo" transform="translate(0.45917395 -4.4100943)">
        <path d="M0 66.5C0 29.7731 29.7731 0 66.5 0C103.227 0 133 29.7731 133 66.5C133 103.227 103.227 133 66.5 133C29.7731 133 0 103.227 0 66.5Z" transform="translate(0 4.4100704)" id="Face" fill="#FFFFFF" fill-rule="evenodd" stroke="url(#gradient_1)" stroke-width="10" />
        <path d="M0 27.3824C0 12.2595 12.2595 0 27.3824 0C42.5052 0 54.7647 12.2595 54.7647 27.3824C54.7647 42.5052 42.5052 54.7647 27.3824 54.7647C12.2595 54.7647 0 42.5052 0 27.3824Z" transform="translate(62.91141 41.96307)" id="RightEye" fill="none" fill-rule="evenodd" stroke="url(#gradient_1)" stroke-width="10" filter="url(#filter_1)" />
        <path d="M0 17.6029C0 7.88111 7.8811 0 17.6029 0C27.3248 0 35.2059 7.88111 35.2059 17.6029C35.2059 27.3248 27.3248 35.2059 17.6029 35.2059C7.8811 35.2059 0 27.3248 0 17.6029Z" transform="translate(12.840826 61.52188)" id="LeftEye" fill="none" fill-rule="evenodd" stroke="url(#gradient_1)" stroke-width="10" filter="url(#filter_1)" />
        <path d="M0.153862 20.2481C-0.309361 18.8569 0.288095 16.425 1.74727 13.7623C3.5732 10.4304 4.06273 9.92595 10.3022 4.9466C14.0675 1.9417 24.0513 -0.731655 28.0963 0.181881C31.6451 0.983349 30.6988 2.78435 25.7556 4.63678C17.5117 7.7261 8.9171 13.4524 3.79706 19.2669C1.97463 21.3365 0.636284 21.697 0.153864 20.2481L0.153862 20.2481Z" transform="matrix(0.9848077 0.17364818 -0.17364818 0.9848077 8.890821 41.965588)" id="path845-2" fill="none" fill-rule="evenodd" stroke="url(#gradient_1)" stroke-width="6" filter="url(#filter_1)" />
        <path d="M0.261383 44.7737C-0.525551 41.6973 0.489426 36.3198 2.9683 30.432C6.07024 23.0643 6.90185 21.9488 17.5015 10.9382C23.8981 4.29361 40.8588 -1.61787 47.7305 0.402184C53.7593 2.17444 52.1517 6.15691 43.7541 10.2531C29.7493 17.0844 15.1485 29.7466 6.45052 42.604C3.35453 47.1805 1.08093 47.9775 0.261391 44.7737L0.261383 44.7737Z" transform="matrix(-0.88294756 0.4694716 0.4694716 0.88294756 102.044754 1.335144E-05)" id="path845" fill="none" fill-rule="evenodd" stroke="url(#gradient_1)" stroke-width="6" filter="url(#filter_1)" />
      </g>
    </g>
    <g id="ker" transform="translate(198 29)">
      <g stroke="url(#gradient_1)" stroke-width="1" id="K" fill="#333333" transform="translate(0 0.90008545)">
        <path d="M27.072 39.196Q30.384 41.5 33.804 45.604Q37.224 49.708 40.68 56.332Q41.112 57.268 41.184 58.312Q41.256 59.356 40.932 60.292Q40.608 61.228 39.96 62.02Q39.312 62.812 38.376 63.316Q37.8 63.676 37.188 63.784Q36.576 63.892 36 63.892Q34.56 63.892 33.3 63.172Q32.04 62.452 31.32 61.084Q28.728 56.044 26.28 52.948Q23.832 49.852 21.636 48.16Q19.44 46.468 17.64 45.928Q15.84 45.388 14.688 45.604Q15.768 51.652 18.792 55.972Q20.016 57.772 19.584 59.86Q19.152 61.948 17.352 63.172C16.536 63.796 15.576 64.108 14.472 64.108C13.608 64.108 12.804 63.916 12.06 63.532Q10.944 62.956 10.152 61.804Q8.208 58.924 6.768 55.396Q5.328 51.868 4.536 48.016Q3.744 44.164 3.636 40.132Q3.528 36.1 4.32 32.212Q2.88 31.996 1.692 31.024Q0.504 30.052 0 28.468Q-0.576 26.38 0.432 24.508Q1.44 22.636 3.528 21.988Q4.896 21.556 6.264 21.088Q7.632 20.62 8.748 20.188Q9.864 19.756 10.548 19.432Q11.232 19.108 11.232 19.108Q12.888 18.46 14.58 18.856Q16.272 19.252 17.352 20.62Q18.504 21.988 18.54 23.752Q18.576 25.516 17.568 26.956Q16.344 28.612 15.588 30.628Q14.832 32.644 14.472 34.876Q15.552 34.372 16.992 33.616Q18.432 32.86 19.656 31.852Q20.88 30.844 21.744 29.62Q22.608 28.396 22.608 27.028Q22.608 24.868 24.156 23.32Q25.704 21.772 27.864 21.772Q29.952 21.772 31.5 23.32Q33.048 24.868 33.048 27.028Q33.048 30.916 31.32 33.904Q29.592 36.892 27.072 39.196Z" />
      </g>
      <g stroke="url(#gradient_1)" stroke-width="1" id="e" fill="#333333" transform="translate(35.000122 0.885376)">
        <path d="M31.032 39.34Q33.192 39.484 34.632 41.032Q36.072 42.58 35.928 44.74Q35.64 49.276 34.128 52.696Q32.616 56.116 30.312 58.636L30.312 58.708L30.312 58.996L30.24 58.996L30.168 58.996Q30.168 59.212 30.24 59.284Q30.456 59.644 30.168 59.932Q29.952 60.148 29.88 60.148Q29.376 60.22 29.376 61.588L29.376 62.308L29.376 62.452L29.376 62.596L29.376 65.404L29.376 65.764Q29.448 66.124 29.484 66.412Q29.52 66.7 29.376 66.988Q29.016 67.564 28.44 67.564L28.08 67.564Q27.72 67.42 27.612 67.096Q27.504 66.772 27.504 66.484L27.504 66.268Q27.504 66.196 27.576 66.124L27.576 66.052L27.576 65.98Q27.504 65.98 27.432 65.908L27.432 65.692Q27.288 65.404 27.252 64.936Q27.216 64.468 27.288 63.892L27.288 63.532Q26.856 63.676 26.856 64.828L26.856 65.692L26.856 65.764L26.856 65.98L26.856 68.788L26.856 69.076Q26.928 69.364 26.964 69.724Q27 70.084 26.856 70.372Q26.496 70.948 25.92 70.948Q25.704 70.948 25.56 70.876Q25.2 70.804 25.092 70.48Q24.984 70.156 24.984 69.796L24.984 69.724L24.984 69.652L24.984 69.436L24.984 69.364L24.984 69.292Q24.984 69.22 24.912 69.148L24.912 69.004Q24.768 68.788 24.732 68.284Q24.696 67.78 24.768 67.204L24.768 66.844L24.768 65.836L24.768 65.116L24.768 64.828Q24.84 64.396 24.696 64.108Q24.48 64.324 24.408 64.324L24.48 64.324Q24.48 64.54 24.408 64.54Q24.264 64.684 24.192 64.684Q24.12 64.684 24.048 64.612Q23.832 64.396 23.904 64.324L23.976 64.252Q23.976 64.252 24.12 64.18Q24.12 64.18 24.048 64.108L24.12 63.964Q24.12 63.82 24.264 63.82Q24.264 63.604 23.976 63.46L23.832 63.46Q23.688 63.388 23.688 63.352Q23.688 63.316 23.616 63.244L23.616 63.172Q21.96 63.964 20.232 64.252Q18.504 64.54 16.704 64.54L16.128 64.54Q12.528 64.468 9.54 63.208Q6.552 61.948 4.392 59.788Q2.232 57.628 1.008 54.676Q-0.216 51.724 -0.216 48.268Q-0.216 45.82 0.576 43.876Q1.368 41.932 2.736 40.492Q1.224 37.828 1.584 34.624Q1.944 31.42 2.88 28.612Q3.6 26.164 4.68 24.508Q5.76 22.852 6.948 21.772Q8.136 20.692 9.396 20.116Q10.656 19.54 11.736 19.252Q14.256 18.676 16.848 19.216Q19.44 19.756 21.744 20.98Q22.392 19.54 23.652 18.676Q24.912 17.812 26.496 17.812Q28.656 17.812 30.168 19.324Q31.68 20.836 31.68 22.996Q31.68 23.932 31.824 25.048Q31.968 26.164 32.184 27.244Q32.4 28.324 32.58 29.224Q32.76 30.124 32.832 30.628Q33.336 32.284 32.652 33.904Q31.968 35.524 30.384 36.46Q28.8 37.252 27.108 37Q25.416 36.748 24.12 35.452Q22.824 34.156 21.348 32.968Q19.872 31.78 18.468 30.916Q17.064 30.052 15.912 29.62Q14.76 29.188 14.112 29.332Q13.392 29.332 12.6 31.708Q12.312 32.716 12.204 33.436Q12.096 34.156 11.952 34.66L14.832 34.66Q15.624 34.588 16.452 34.588Q17.28 34.588 18.216 34.588Q20.304 34.588 21.816 35.992Q23.328 37.396 23.4 39.484Q23.4 41.644 21.96 43.156Q20.52 44.668 18.432 44.812Q17.136 44.884 15.66 45.172Q14.184 45.46 12.924 45.928Q11.664 46.396 10.836 46.972Q10.008 47.548 10.008 48.268Q10.008 49.924 10.584 51.04Q11.16 52.156 12.096 52.84Q13.032 53.524 14.184 53.884Q15.336 54.244 16.488 54.244Q17.928 54.316 19.476 53.812Q21.024 53.308 22.356 52.12Q23.688 50.932 24.588 48.952Q25.488 46.972 25.704 44.092Q25.848 42.004 27.396 40.6Q28.944 39.196 31.032 39.34ZM31.032 59.284Q31.176 59.14 31.536 59.284Q31.608 59.5 31.536 59.572Q31.392 59.716 31.248 59.716Q31.176 59.716 31.176 59.644L31.104 59.572Q30.96 59.572 30.96 59.428L30.96 59.356Q30.96 59.356 31.032 59.284Z" />
      </g>
      <g stroke="url(#gradient_1)" stroke-width="1" id="r" fill="#333333" transform="translate(70 0)">
        <path d="M27.36 34.3Q27.072 38.404 25.128 41.428Q26.28 42.652 27.432 44.308Q28.584 45.964 29.52 48.124Q30.456 50.284 30.996 53.02Q31.536 55.756 31.536 59.068Q31.536 61.156 30.024 62.668Q28.512 64.18 26.424 64.18Q24.264 64.18 22.752 62.668Q21.24 61.156 21.24 59.068Q21.24 56.692 20.844 54.892Q20.448 53.092 19.836 51.724Q19.224 50.356 18.504 49.492Q17.784 48.628 17.136 48.052Q14.04 49.348 10.8 49.78Q11.16 52.084 11.52 53.848Q11.88 55.612 12.384 56.404Q13.464 58.276 12.96 60.328Q12.456 62.38 10.584 63.46Q9.36 64.18 7.92 64.18Q6.624 64.18 5.436 63.532Q4.248 62.884 3.456 61.66Q2.16 59.356 1.332 55.324Q0.504 51.292 0.18 46.72Q-0.144 42.148 -0.072 37.612C-0.024 34.588 0.144 31.972 0.432 29.764Q-0.144 29.908 -0.432 29.98Q-1.512 30.196 -2.52 30.016Q-3.528 29.836 -4.392 29.332Q-5.256 28.828 -5.868 28Q-6.48 27.172 -6.696 26.164Q-6.912 25.084 -6.732 24.076Q-6.552 23.068 -6.048 22.24Q-5.544 21.412 -4.716 20.8Q-3.888 20.188 -2.88 19.9Q-0.36 19.324 3.06 19.072Q6.48 18.82 10.08 19.144Q13.68 19.468 17.064 20.512Q20.448 21.556 22.968 23.716Q25.344 25.732 26.46 28.468Q27.576 31.204 27.36 34.3ZM10.872 29.548Q10.44 31.204 10.296 33.832Q10.152 36.46 10.224 39.484Q11.304 39.268 12.456 38.872Q13.608 38.476 14.616 37.756Q15.624 37.036 16.272 36.028Q16.92 35.02 17.064 33.58Q17.136 32.284 16.272 31.564Q15.408 30.772 14.004 30.304Q12.6 29.836 10.872 29.548Z" />
      </g>
    </g>
    <g id="sp" transform="translate(0 29)">
      <g stroke="url(#gradient_1)" stroke-width="1" id="s" fill="#333333">
        <path d="M25.344 40.636Q27.36 41.716 28.62 43.084Q29.88 44.452 30.6 45.856Q31.32 47.26 31.536 48.664Q31.752 50.068 31.752 51.22Q31.68 53.812 30.78 56.08Q29.88 58.348 28.296 60.112Q26.712 61.876 24.516 63.028C23.052 63.796 21.432 64.3 19.656 64.54Q19.008 64.684 18.396 64.684Q17.784 64.684 17.136 64.684Q16.2 64.684 15.192 64.612Q14.184 64.54 13.248 64.252L13.248 64.684L13.248 64.756L13.248 64.9Q13.248 65.62 13.248 66.268Q13.248 66.916 13.32 67.636L13.32 68.068Q13.392 68.284 13.392 68.644Q13.392 69.004 13.248 69.22Q13.032 69.796 12.384 69.796Q12.096 69.796 11.952 69.724Q11.664 69.652 11.52 69.328Q11.376 69.004 11.448 68.716Q11.448 68.644 11.376 68.644Q11.376 68.5 11.448 68.5Q11.448 68.5 11.448 68.356L11.448 68.212Q11.448 68.14 11.376 68.14L11.376 67.996Q11.232 67.708 11.196 67.24Q11.16 66.772 11.232 66.196Q11.232 66.052 11.268 66.016Q11.304 65.98 11.304 65.836L11.304 64.828L11.304 64.18L11.304 63.892L11.304 63.82Q11.16 63.82 11.16 63.748Q11.16 63.892 11.016 64.036Q10.872 64.252 10.728 64.252Q10.224 64.396 10.224 65.62L10.224 66.412L10.224 66.484L10.224 66.628Q10.224 67.348 10.224 68.032Q10.224 68.716 10.296 69.364L10.296 69.724Q10.368 70.084 10.368 70.372Q10.368 70.66 10.224 70.948Q10.008 71.524 9.432 71.524Q9.36 71.524 9.252 71.488Q9.144 71.452 9.072 71.452Q8.712 71.38 8.604 71.056Q8.496 70.732 8.496 70.372L8.424 70.3Q8.424 70.228 8.496 70.228L8.496 70.084L8.496 70.012L8.496 69.94L8.424 69.868Q8.352 69.868 8.352 69.652Q8.208 69.436 8.208 68.968Q8.208 68.5 8.208 67.924Q8.208 67.924 8.28 67.78L8.28 67.636L8.28 66.556L8.28 65.908L8.28 65.62Q8.28 64.972 8.136 64.828Q8.136 65.044 7.92 65.044L7.92 65.116L7.992 65.116Q7.992 65.332 7.92 65.404Q7.848 65.404 7.812 65.44Q7.776 65.476 7.704 65.476L7.632 65.404Q7.344 65.404 7.488 65.116L7.56 65.044Q7.56 64.9 7.704 64.9Q7.704 64.9 7.632 64.828L7.704 64.684Q7.704 64.684 7.776 64.54Q7.776 64.396 7.56 64.18L7.416 64.18Q7.272 64.18 7.272 64.108L7.272 64.036L7.2 63.964Q7.2 63.892 7.128 63.82L7.128 63.46Q6.408 63.82 5.616 63.964Q4.824 64.108 3.96 63.964Q1.944 63.748 0.648 62.092Q-0.648 60.436 -0.288 58.348Q0.072 55.612 0.396 53.524Q0.72 51.436 0.72 51.364Q1.008 49.636 2.232 48.484Q3.456 47.332 5.256 47.188Q6.984 47.044 8.388 47.98Q9.792 48.916 10.368 50.572Q10.8 51.724 11.628 52.588Q12.456 53.452 13.536 53.956Q14.616 54.46 15.84 54.64Q17.064 54.82 18.144 54.604Q19.44 54.46 20.16 53.956Q20.88 53.452 21.204 52.876Q21.528 52.3 21.6 51.76Q21.672 51.22 21.672 51.004Q21.672 50.5 21.528 50.212Q21.384 49.924 20.52 49.42Q19.224 48.772 17.352 48.268Q15.48 47.764 13.392 47.188Q11.088 46.684 8.424 45.964Q5.76 45.244 3.456 43.876Q1.152 42.508 -0.396 40.312Q-1.944 38.116 -1.944 34.732Q-1.944 30.556 0.216 27.064Q2.376 23.572 6.336 21.268Q8.352 20.188 10.548 19.54Q12.744 18.892 14.94 18.748Q17.136 18.604 19.224 18.964Q21.312 19.324 23.184 20.188Q25.056 18.316 27.792 18.892Q29.808 19.252 30.96 21.016Q32.112 22.78 31.608 24.796Q31.32 26.02 31.248 28.108Q31.176 30.196 31.176 31.924Q31.176 32.5 31.212 32.968Q31.248 33.436 31.176 33.94Q31.176 35.956 29.736 37.324Q28.296 38.692 26.208 38.692Q24.12 38.692 22.68 37.324Q21.24 35.956 21.24 33.94Q21.168 33.796 21.168 32.428Q21.024 31.06 20.52 30.448Q20.016 29.836 19.512 29.548Q18 28.612 15.66 28.756Q13.32 28.9 11.304 30.052Q10.152 30.628 9.108 31.78Q8.064 32.932 8.064 34.732L8.064 34.876Q8.28 35.308 9.144 35.668Q10.008 36.028 11.16 36.352Q12.312 36.676 13.536 36.964Q14.76 37.252 15.696 37.468Q18.216 38.044 20.7 38.728Q23.184 39.412 25.344 40.636Z" />
      </g>
      <g stroke="url(#gradient_1)" stroke-width="1" id="p" fill="#333333" transform="translate(36 0.0146484375)">
        <path d="M23.544 21.916Q26.28 23.644 27.9 26.272Q29.52 28.9 29.736 32.212Q30.024 36.244 28.8 39.376Q27.576 42.508 25.452 44.776Q23.328 47.044 20.628 48.52Q17.928 49.996 15.336 50.86Q16.344 53.884 17.352 55.18Q18.072 56.044 18.36 57.088Q18.648 58.132 18.54 59.176Q18.432 60.22 17.892 61.156Q17.352 62.092 16.488 62.812Q14.904 64.036 13.104 64.036C11.472 64.036 10.056 63.364 8.856 62.02Q7.128 59.86 5.724 56.152Q4.32 52.444 3.276 48.16Q2.232 43.876 1.62 39.52Q1.008 35.164 0.936 31.78Q0.72 31.924 0.504 31.96Q0.288 31.996 0.072 32.14Q-2.016 32.932 -4.104 32.068Q-6.192 31.204 -6.984 29.116Q-7.848 27.028 -6.948 24.976Q-6.048 22.924 -3.96 22.06Q-1.44 21.052 2.088 20.188Q5.616 19.324 9.396 19.108Q13.176 18.892 16.884 19.504Q20.592 20.116 23.544 21.916ZM12.744 40.276Q13.824 39.916 14.976 39.304Q16.128 38.692 17.028 37.828Q17.928 36.964 18.468 35.776Q19.008 34.588 18.936 33.076Q18.864 31.708 17.784 31.132Q16.776 30.484 15.228 30.196Q13.68 29.908 11.808 29.908Q11.664 31.78 11.916 34.516Q12.168 37.252 12.744 40.276Z" />
      </g>
    </g>
  </g>
</svg>